<?xml version="1.0" encoding="UTF-8"?>
<svg width="189px" height="189px" viewBox="0 0 189 189" version="1.1" xmlns="http://www.w3.org/2000/svg" xmlns:xlink="http://www.w3.org/1999/xlink">
    <!-- Generator: Sketch 47.1 (45422) - http://www.bohemiancoding.com/sketch -->
    <title>Page 1</title>
    <desc>Created with Sketch.</desc>
    <defs>
        <polygon id="path-1" points="0 94.7037385 0 0.407477064 188.592523 0.407477064 188.592523 189 94.2962615 189 0 189"></polygon>
    </defs>
    <g id="Page-1" stroke="none" stroke-width="1" fill="none" fill-rule="evenodd">
        <g id="10---" transform="translate(-897.000000, -50.000000)">
            <g id="Page-1" transform="translate(897.000000, 50.000000)">
                <g id="Group-3">
                    <mask id="mask-2" fill="white">
                        <use xlink:href="#path-1"></use>
                    </mask>
                    <g id="Clip-2"></g>
                    <path d="M94.2962615,3.01706422 C43.7404954,3.01706422 2.61045413,44.1471055 2.61045413,94.7037385 C2.61045413,145.258638 43.7404954,186.389546 94.2962615,186.389546 C144.852028,186.389546 185.982069,145.258638 185.982069,94.7037385 C185.982069,44.1471055 144.852028,3.01706422 94.2962615,3.01706422 M94.2962615,189 C42.3013211,189 0,146.698679 0,94.7037385 C0,42.7087982 42.3013211,0.406610092 94.2962615,0.406610092 C146.291202,0.406610092 188.592523,42.7087982 188.592523,94.7037385 C188.592523,146.698679 146.291202,189 94.2962615,189" id="Fill-1" fill="#886BF3" mask="url(#mask-2)"></path>
                </g>
                <path d="M146,72 C146.014,72.037 146.032,72.083 146.038,72.096 C146.027,72.063 146.014,72.032 146,72" id="Fill-4" fill="#DA6265"></path>
                <path d="M145.86706,78.0354059 C145.627349,78.8143351 145.294322,79.5129534 144.761821,80.3056995 C144.402255,80.8566494 143.78928,81.5276339 143.149765,82.0785838 C142.630962,82.5215889 141.818514,83.0457686 141.019763,83.380829 C140.073761,83.7979275 138.795588,84.0259067 137.66381,84.0397237 C137.221201,84.0414508 136.778592,84.0414508 136.335983,84.0423143 C136.317148,84.0414508 136.298314,84.0397237 136.27948,84.0397237 C136.258077,84.0397237 136.238386,84.0423143 136.21784,84.0423143 C133.357575,84.0483592 130.49731,84.0397237 127.637045,84.0397237 C127.020646,84.0397237 126.40339,84.037133 125.786135,84.0336788 L125.786135,74.0993092 L125.786135,66.8868739 L135.093767,66.8868739 C136.069733,66.8868739 137.043986,66.9119171 138.013103,66.8739206 C138.208296,66.8842832 138.402633,66.8972366 138.596114,66.9136442 C138.636351,66.9136442 139.022457,66.9542314 138.809286,66.9274611 C138.608956,66.8998273 138.9163,66.9404145 138.929141,66.9404145 C139.102075,66.9680484 139.287851,67.007772 139.462498,67.0474957 C139.874287,67.142487 140.274091,67.2495682 140.673894,67.3981002 C140.752656,67.4240069 140.846828,67.4645941 140.926447,67.4913644 C140.965828,67.5051813 141.312552,67.6528497 141.113079,67.5725389 C140.993223,67.5181347 141.379329,67.7063903 141.459803,67.7469775 C141.832211,67.9352332 142.17808,68.1364421 142.524805,68.3644214 C142.6712,68.4585492 142.816738,68.5656304 142.951148,68.6735751 C142.975975,68.6925734 142.993953,68.7037997 143.005083,68.7124352 C143.066723,68.7625216 143.128363,68.8126079 143.190003,68.8756477 C143.49649,69.1433506 143.78928,69.425734 144.068372,69.7348877 C144.189083,69.8687392 144.295241,70.0025907 144.415953,70.1373057 C144.418521,70.1407599 144.431363,70.1571675 144.446773,70.1761658 C144.405679,70.1312608 144.578614,70.3557858 144.601729,70.3791019 C144.841439,70.7150259 145.054611,71.0647668 145.254085,71.4274611 C145.334559,71.5880829 145.414177,71.7495682 145.493796,71.8972366 C145.520335,71.9499136 145.545162,72.0034542 145.567421,72.0561313 C145.549443,72.007772 145.538313,71.9766839 145.587112,72.0984456 C145.746348,72.4879102 145.86706,72.8911917 145.986915,73.2944732 C146.084512,73.6390328 146.158993,74.0069085 146.211216,74.3661485 C146.209504,74.3929188 146.240324,74.7279793 146.240324,74.798791 C146.253165,75.0129534 146.266007,75.2417962 146.266007,75.4568221 C146.266007,76.4240069 146.172691,77.0414508 145.86706,78.0354059 L145.86706,78.0354059 Z M125.866609,45.9464594 L137.264863,45.9464594 C137.744284,45.9464594 138.210008,45.9594128 138.68943,45.9870466 C138.703128,45.9870466 139.008759,46.0138169 138.809286,46 C138.596114,45.9732297 138.968522,46.0276339 139.008759,46.0276339 C139.181694,46.0544041 139.368326,46.0949914 139.54126,46.134715 C139.954761,46.2288428 140.354565,46.3497409 140.753512,46.484456 C140.814296,46.5043178 141.051439,46.6027634 141.114791,46.6243523 C141.181568,46.6545769 141.279164,46.6986183 141.299711,46.7124352 C141.379329,46.7521589 141.459803,46.7927461 141.538566,46.8333333 C141.898132,47.0215889 142.257698,47.2357513 142.603567,47.4645941 C142.725135,47.5414508 142.84499,47.6295337 142.957997,47.7176166 C142.945155,47.7107081 143.216542,47.9326425 143.270477,47.9740933 C143.549569,48.2297064 143.829517,48.4991364 144.08207,48.7806563 C144.215623,48.9283247 144.349176,49.0889465 144.481873,49.2512953 C144.61457,49.4119171 144.481873,49.2512953 144.455334,49.224525 C144.508413,49.291019 144.562347,49.3721934 144.61457,49.4395509 C144.854281,49.7746114 145.067453,50.1243523 145.267782,50.4870466 C145.360242,50.6744387 145.454414,50.8626943 145.546874,51.037133 C145.572558,51.0846287 145.588824,51.1122625 145.599097,51.1295337 C145.601665,51.1442142 145.612795,51.1787565 145.64019,51.2521589 C145.786585,51.642487 145.920139,52.044905 146.027152,52.4611399 C146.066533,52.6355786 146.105914,52.8100173 146.146152,52.9982729 C146.158993,53.0716753 146.224914,53.5060449 146.227482,53.4982729 C146.233475,53.5466321 146.240324,53.597582 146.240324,53.6027634 C146.240324,53.6968912 146.253165,53.791019 146.266007,53.8851468 C146.278849,54.1398964 146.292547,54.3955095 146.278849,54.6502591 C146.266007,55.5768566 146.159849,56.2487047 145.853362,57.216753 C145.627349,57.9412781 145.280624,58.6260794 144.788361,59.3920553 C143.928826,60.6856649 142.570179,61.8324698 140.987231,62.5069085 C141.012058,62.4930915 140.678175,62.6183074 140.619959,62.642487 C140.39309,62.7236615 140.154235,62.7901554 139.914524,62.857513 C139.714194,62.9110535 139.501023,62.9645941 139.301549,63.0051813 C139.195392,63.0319516 139.089234,63.0457686 138.995918,63.0587219 C138.936846,63.0682211 138.890616,63.0759931 138.852947,63.0829016 C138.846098,63.0803109 138.815279,63.0811744 138.742509,63.0854922 C138.370101,63.1260794 138.009679,63.1260794 137.638127,63.1260794 L137.285409,63.1260794 C136.987483,63.1174439 136.687844,63.1131261 136.385637,63.1131261 L125.786135,63.1131261 L125.786135,57.82038 L125.786135,45.9464594 L125.866609,45.9464594 Z M144.231033,65.0120898 C146.642696,63.470639 148.504736,61.0803109 149.408788,58.3177893 C150.621041,54.6373057 149.941289,50.3661485 147.624654,47.2625216 C145.352537,44.2253886 141.928096,42.3385147 138.144088,42.2029361 L138.144088,36.8799655 C138.144088,35.8592401 137.290546,35 136.27948,35 C135.266701,35 134.414871,35.8592401 134.414871,36.8799655 L134.414871,42.1580311 C132.406436,42.1623489 130.396289,42.1994819 128.396415,42.1994819 C127.530031,42.1994819 126.663648,42.1943005 125.797264,42.1891192 C125.815242,40.4516408 125.846918,38.7046632 125.786135,36.9740933 L125.786135,36.8799655 C125.786135,35.8592401 124.934305,35 123.921526,35 C122.91046,35 122.056918,35.8592401 122.056918,36.8799655 L122.056918,42.1666667 C120.409761,42.1597582 118.762605,42.164076 117.117161,42.1994819 L116.903989,42.1994819 C115.892067,42.1994819 115.040237,43.0587219 115.040237,44.0803109 C115.027396,45.0872193 115.879225,45.9464594 116.891148,45.9464594 L122.056918,45.9464594 L122.056918,55.8998273 L122.056918,64.6139896 C122.031235,64.7374784 122.018393,64.8635579 122.018393,64.9930915 C122.021817,65.0993092 122.036371,65.2029361 122.056918,65.3048359 L122.056918,72.17962 L122.056918,84.0138169 C120.394351,84.0060449 118.729217,84.007772 117.064082,84.0397237 L116.864608,84.0397237 C115.85183,84.0397237 115,84.8989637 115,85.9196891 C115,86.9404145 115.85183,87.8005181 116.864608,87.8005181 L122.047501,87.8005181 C122.028666,89.5414508 121.996134,91.2918826 122.056918,93.0250432 L122.056918,93.1200345 C122.056918,94.1398964 122.91046,95 123.921526,95 C124.934305,95 125.786135,94.1398964 125.786135,93.1200345 L125.786135,87.8005181 L126.505267,87.8005181 C129.1438,87.8005181 131.781476,87.806563 134.414871,87.8056995 L134.414871,93.1062176 C134.414871,94.126943 135.266701,94.9861831 136.27948,94.9861831 C137.290546,94.9861831 138.144088,94.126943 138.144088,93.1062176 L138.144088,87.7841105 C141.319401,87.6286701 144.378284,86.3126079 146.586192,83.9585492 C149.475565,80.8696028 150.633882,76.4240069 149.556039,72.2996546 C148.773554,69.3272884 146.822479,66.6468048 144.231033,65.0120898 L144.231033,65.0120898 Z" id="Fill-6" fill="#DA6265"></path>
                <path d="M68.0037299,128 C67.9857299,128.18 68.0407299,128.122 68.0037299,128" id="Fill-8" fill="#DA6265"></path>
                <path d="M58.0801817,140.470575 C58.0801817,140.573445 58.0690552,140.672028 58.0305406,140.723463 C58.0305406,140.723463 58.0716229,140.535726 58.0801817,140.470575 M58.7400663,126.602892 C58.7426339,126.598605 58.7469133,126.593462 58.749481,126.590033 C58.7477692,126.593462 58.7434898,126.597748 58.7400663,126.602892 M67.3964511,126.332001 C67.3416746,126.248849 67.3570805,126.271994 67.3964511,126.332001 M70.8636267,146.146407 C70.7480827,146.223559 70.6333946,146.300712 70.5178506,146.377864 C70.2859068,146.516738 70.0436923,146.635038 69.7997661,146.752481 C69.9795012,146.663327 69.48309,146.87421 69.4129077,146.897356 C69.2537138,146.950505 69.0936639,147.003654 68.9207759,147.043945 C68.6939673,147.11081 68.4543205,147.150243 68.2155296,147.203393 C68.1453473,147.220538 68.104265,147.231682 68.0820121,147.23854 C68.0597592,147.23854 68.0229563,147.239397 67.9621887,147.243683 C66.8307134,147.323407 66.0852407,147.257399 65.0196683,146.857065 C64.0345488,146.484163 63.1427203,145.990388 62.0780038,145.817224 C61.3556399,145.698067 60.618726,145.649204 59.8792445,145.666349 C61.0244138,143.957856 61.8178159,142.070198 61.7852924,140.02995 C61.7775895,139.641617 61.7390748,139.260143 61.6740278,138.882954 L64.3683426,138.882954 L65.8584321,138.882954 C66.8709399,138.882954 67.7225419,138.029993 67.7225419,137.016727 C67.7225419,136.003461 66.8709399,135.150501 65.8584321,135.150501 L60.1420001,135.150501 C59.7577093,134.515281 59.3597244,133.889491 59.016516,133.230268 C58.7905633,132.805073 58.5783047,132.355018 58.3874431,131.915251 C58.3711814,131.86553 58.236808,131.525203 58.2171227,131.456624 C58.150364,131.270601 58.0844611,131.070005 58.0177023,130.883125 C57.9381054,130.616522 57.8576525,130.349918 57.8045879,130.069598 C57.7908938,129.977015 57.7908938,129.856144 57.7515232,129.77642 C57.7669291,129.812424 57.7789114,129.844142 57.7908938,129.875003 C57.789182,129.685552 57.7780555,129.485813 57.7908938,129.296361 C57.7908938,129.176347 57.8045879,129.070048 57.8174261,128.950034 C57.8174261,128.922602 57.8208496,128.893455 57.8242731,128.863452 C57.8747701,128.619994 57.9149966,128.365391 57.99117,128.123648 C58.0305406,127.989917 58.070767,127.856187 58.1109934,127.723313 C58.1272552,127.681308 58.1435169,127.64016 58.1606345,127.598155 C58.3155491,127.323836 58.4473548,127.037516 58.6168193,126.776055 C58.6330811,126.749481 58.6519105,126.722049 58.6707399,126.696331 L58.6835781,126.683473 C58.8034015,126.549742 58.922369,126.403153 59.0558865,126.27028 C59.1628717,126.163124 59.290398,126.065398 59.4016626,125.960814 C59.4701331,125.920523 59.5309007,125.863945 59.601083,125.815939 C59.7619887,125.70964 59.9211826,125.617058 60.0949266,125.52276 C60.2010559,125.469611 60.3208793,125.416462 60.4270086,125.363312 C60.4475497,125.353025 60.4638115,125.344453 60.4783615,125.337595 C60.4792173,125.337595 60.4800732,125.336738 60.4809291,125.336738 C61.5584838,124.976694 62.170439,124.842964 63.1564145,124.816389 C63.6357081,124.80353 64.1013076,124.816389 64.566907,124.85668 L64.5703306,124.85668 C64.581457,124.860109 64.596007,124.864395 64.6208276,124.870395 C64.7278128,124.883254 64.820248,124.909829 64.9263772,124.922688 C65.1394917,124.962978 65.3526062,125.016985 65.5657207,125.082993 C65.6632912,125.115568 65.8609998,125.193578 65.9080733,125.208151 C66.0099231,125.257871 66.111773,125.309306 66.2179023,125.363312 C66.3651139,125.443036 66.4977756,125.536476 66.6304372,125.617058 C66.6971959,125.656491 66.7639547,125.70964 66.8307134,125.749931 C66.8135958,125.740501 66.7999017,125.732786 66.7862076,125.725071 C66.7973341,125.733643 66.8076046,125.741358 66.8170193,125.749931 C66.949681,125.869945 67.0840543,126.002819 67.216716,126.136549 C67.2655012,126.18627 67.4469481,126.426299 67.4666333,126.443444 C67.5085715,126.509452 67.548798,126.576317 67.5624921,126.602892 C67.6557831,126.749481 67.7353801,126.896927 67.815833,127.043516 C67.8423653,127.096666 67.8688976,127.163531 67.9082682,127.21668 C67.9202505,127.238112 67.9279534,127.257828 67.9339446,127.276688 C67.9348005,127.26983 67.9348005,127.265543 67.9356564,127.256971 C67.9621887,127.322979 67.988721,127.40356 68.0152533,127.469568 C68.1085444,127.736172 68.1889973,128.016492 68.2549001,128.296811 C68.2822883,128.405682 68.2959824,128.524839 68.3105324,128.642282 C68.3302177,128.686859 68.3524706,128.762297 68.3618853,128.843735 C68.3747235,128.923459 68.3747235,129.003183 68.3884176,129.083764 C68.4021117,129.256928 68.4140941,129.430092 68.4021117,129.603256 C68.3618853,130.616522 69.2802461,131.47034 70.2645097,131.47034 C71.3035498,131.443765 72.0883931,130.589947 72.1286195,129.576681 C72.1953782,127.749888 71.5825671,125.70964 70.5050124,124.242891 C67.988721,120.843049 63.0502852,120.283267 59.2818392,121.78945 C56.0611574,123.083036 54.1037566,126.043109 54.0772242,129.509816 C54.064386,131.016856 54.6095825,132.41674 55.1958613,133.776334 C55.399561,134.243533 55.6212343,134.701303 55.8566017,135.150501 L55.3550552,135.150501 L53.8641098,135.150501 C52.8524579,135.150501 52,136.003461 52,137.016727 C52,138.029993 52.8652961,138.882954 53.8641098,138.882954 L57.8747701,138.882954 C57.9363936,139.093837 57.9928818,139.303005 58.0442347,139.524175 C58.0485141,139.542177 58.0527935,139.558465 58.0570729,139.57218 C58.0570729,139.592754 58.0570729,139.6159 58.0579288,139.643332 C58.070767,139.816496 58.0844611,140.003376 58.070767,140.17654 C58.070767,140.240833 58.0801817,140.345417 58.0810376,140.450001 C58.0767582,140.452573 58.0656317,140.485148 58.0442347,140.563158 C58.0177023,140.68403 58.0040082,140.790328 57.9774759,140.910343 C57.9381054,141.110081 57.8713466,141.30982 57.8174261,141.510416 C57.7771997,141.63043 57.5255705,142.257078 57.7249909,141.816453 C57.3252943,142.72342 56.6722567,143.750402 56.1672867,144.403624 C55.3687493,145.444322 54.1431271,146.697617 53.0784106,147.710026 C51.5078682,149.204207 53.5046396,151.643932 55.342217,150.643525 C55.5810079,150.510651 55.8206547,150.418069 56.0611574,150.297197 C56.0688603,150.293768 56.0731397,150.291196 56.0799868,150.288624 C56.0953926,150.282624 56.1082309,150.27748 56.1270603,150.270622 C56.2871101,150.203757 56.4599981,150.150608 56.620048,150.083742 C56.9529858,149.963728 57.2987619,149.857429 57.6316998,149.763989 C58.0177023,149.657691 58.4037049,149.563394 58.7897074,149.497386 C58.9095308,149.470811 59.0293542,149.457095 59.1491776,149.444236 C58.9497572,149.470811 58.9762895,149.470811 59.2030981,149.444236 C59.4547273,149.43052 59.6952299,149.403946 59.9485708,149.39023 L60.5211555,149.39023 C60.5648055,149.39023 60.8917522,149.414233 61.0149991,149.421948 C61.4977162,149.48967 61.9804334,149.620829 62.4237799,149.790564 C63.2094791,150.096601 64.4873101,150.697531 65.592253,150.870695 C66.8170193,151.057575 67.9758828,151.043859 69.1997932,150.816689 C70.7446592,150.524367 72.2492988,149.830855 73.460371,148.816731 C74.232376,148.164367 74.1253909,146.844206 73.460371,146.177268 C72.7140424,145.429749 71.6330641,145.522331 70.8636267,146.146407" id="Fill-10" fill="#DA6265"></path>
                <path d="M66.1942754,126.119965 C66.0522754,126.010965 65.8392754,125.915965 66.1942754,126.119965" id="Fill-12" fill="#DA6265"></path>
                <path d="M68.1091931,129.420207 C68.0711931,129.306207 68.0511931,129.177207 68.0341931,129.046207 C67.9911931,128.944207 67.9641931,128.987207 68.1091931,129.420207" id="Fill-14" fill="#DA6265"></path>
                <path d="M57,130 L57,130.041 C57,130.356 57.158,130.42 57,130" id="Fill-16" fill="#DA6265"></path>
                <path d="M103.031884,111.260735 C102.048149,110.687222 101.037185,111.124603 100.409176,111.943155 C96.9344829,116.522477 93.4729652,121.100921 89.9982724,125.679366 C87.0251089,121.761384 84.053702,117.842524 81.0919568,113.924542 C80.5851576,113.268471 80.0941684,112.599226 79.5891258,111.943155 C78.9602381,111.124603 77.9352213,110.687222 76.9655396,111.260735 C76.1592281,111.738517 75.6541856,113.04978 76.282195,113.883263 C79.3888655,117.9769 82.4937793,122.071415 85.5916664,126.165052 L84.4243593,126.165052 L82.5939094,126.165052 C81.5557176,126.165052 80.6817744,127.038935 80.6817744,128.077055 C80.6817744,129.115175 81.5557176,129.989058 82.5939094,129.989058 L88.0993124,129.989058 L88.0993124,135.344775 L84.4243593,135.344775 L82.5939094,135.344775 C81.5557176,135.344775 80.6817744,136.218658 80.6817744,137.257657 C80.6817744,138.294899 81.5557176,139.16966 82.5939094,139.16966 L88.0993124,139.16966 L88.0993124,142.189167 L88.0993124,144.087997 C88.0993124,145.126117 88.974134,146 90.0123258,146 C91.0505176,146 91.9244608,145.126117 91.9244608,144.087997 L91.9244608,139.16966 L95.6143456,139.16966 L97.4447955,139.16966 C98.482109,139.16966 99.3569305,138.294899 99.3569305,137.257657 C99.3569305,136.218658 98.482109,135.344775 97.4447955,135.344775 L91.9244608,135.344775 L91.9244608,130.713634 L91.9244608,129.989058 L95.6143456,129.989058 L97.4447955,129.989058 C98.482109,129.989058 99.3569305,129.115175 99.3569305,128.077055 C99.3569305,127.038935 98.482109,126.165052 97.4447955,126.165052 L94.4057568,126.165052 C97.0073847,122.731877 99.6072559,119.297824 102.211519,115.863771 C102.718318,115.208579 103.209307,114.538455 103.71435,113.883263 C104.343238,113.063833 103.852248,111.738517 103.031884,111.260735" id="Fill-18" fill="#DA6265"></path>
                <path d="M34,104.11 C34.01,104.086 34.023,104.049 34.042,104 C34.04,104.005 34.037,104.009 34.036,104.013 C34.023,104.046 34.012,104.078 34,104.11" id="Fill-20" fill="#DA6265"></path>
                <path d="M42.6320827,124.356244 C42.6251949,124.358843 42.6183071,124.362308 42.6122803,124.364906 C42.6148632,124.363174 42.622612,124.359709 42.6320827,124.356244 M38.3134405,124.714849 C38.3203283,124.715715 38.3254941,124.716581 38.3315209,124.717447 C38.2772796,124.71225 38.2566162,124.709652 38.3134405,124.714849 M35.1803585,123.259642 C35.1433367,123.259642 35.0753198,123.162628 35.0081638,123.050889 C35.0486296,123.09853 35.197578,123.259642 35.1803585,123.259642 M34.5699284,122.268715 C34.5699284,122.266983 34.5690674,122.26525 34.5690674,122.263518 C34.5690674,122.26525 34.5699284,122.266983 34.5699284,122.268715 M44.9102182,118.5051 C44.9765131,118.638494 44.9653204,118.647156 44.9102182,118.5051 M44.8749182,118.409818 C44.8852499,118.441001 44.8981645,118.472184 44.9102182,118.503367 C44.8998865,118.477381 44.8886938,118.447065 44.8749182,118.409818 M34.0240713,107.469781 C34.1153345,107.644752 34.0808956,107.607506 34.0240713,107.469781 M33.742533,106.392235 C33.742533,106.393967 33.7416721,106.394833 33.7416721,106.396566 C33.7416721,106.394833 33.742533,106.393967 33.742533,106.392235 M36.3245921,101.75203 C36.3314799,101.748565 36.3375067,101.745967 36.3443945,101.743368 C36.3409506,101.745101 36.3349238,101.747699 36.3245921,101.75203 M43.9700353,102.976829 C43.9209598,102.91966 43.7961187,102.781069 43.8038674,102.781069 C43.8451941,102.787133 43.9080452,102.874618 43.9700353,102.976829 M44.7010016,112.993504 C43.108201,112.009506 41.3397617,111.538297 39.5317177,111.133784 C39.0771238,111.025509 38.6216689,110.905108 38.166214,110.756989 C37.9793828,110.689426 37.7779151,110.622729 37.5910838,110.5543 C37.4963768,110.514455 37.4033917,110.486736 37.3224602,110.446891 C37.5506181,110.541307 37.2553042,110.420039 37.1752337,110.379328 C36.8540907,110.231209 36.5458622,110.070097 36.2514093,109.881266 C36.1179585,109.799844 35.9698711,109.706295 35.8355592,109.61188 C35.7425741,109.55731 35.6616426,109.490613 35.5824331,109.423049 C35.5781282,109.420451 35.5755453,109.418718 35.5712404,109.415254 C35.3646068,109.234219 35.1459196,109.051452 34.9522006,108.843565 C34.8454399,108.722298 34.7378182,108.601897 34.6310575,108.493623 C34.6121161,108.471968 34.5983405,108.458975 34.5871479,108.449447 C34.5793991,108.43732 34.5733723,108.426926 34.5639016,108.413067 C34.4166752,108.183525 34.2694487,107.967843 34.1480515,107.725308 C34.1041418,107.635224 34.067981,107.54514 34.0180445,107.454189 C34.0077128,107.430802 33.9982421,107.40395 33.9879104,107.375365 C33.9078399,107.145824 33.8544596,106.931008 33.8002183,106.688473 C33.8002183,106.674614 33.7821378,106.605318 33.7657793,106.536023 C33.7640574,106.509171 33.7631964,106.475389 33.7597525,106.43208 C33.7476989,106.18608 33.6366333,105.346738 33.7933305,105.112865 C33.7253136,105.229801 33.7528647,105.486195 33.8139938,105.151844 C33.840684,105.044436 33.8544596,104.936161 33.8811498,104.828753 C33.9336691,104.57236 34.0146006,104.316832 34.0955321,104.060439 C34.1153345,104.005868 34.1359979,103.950432 34.1566612,103.896728 C34.129971,103.960826 34.1368588,103.927045 34.1876563,103.812707 C34.197127,103.787587 34.2065977,103.762468 34.2160684,103.737348 C34.2074586,103.762468 34.1997099,103.781524 34.1928221,103.801447 C34.1997099,103.784989 34.2065977,103.769397 34.2160684,103.751207 C34.3495192,103.494814 34.4967457,103.265272 34.6448331,103.023604 L34.6448331,103.021871 C34.6499989,103.01754 34.6525819,103.014942 34.6577477,103.009745 C34.7378182,102.915329 34.8187497,102.82178 34.9117348,102.726499 C35.0193565,102.619091 35.1261172,102.510817 35.2466535,102.403408 C35.2785095,102.374824 35.2991728,102.354902 35.3163923,102.337578 C35.3241411,102.332381 35.3310288,102.328916 35.3404996,102.322852 C35.6082623,102.147015 35.8631104,101.985903 36.1437877,101.837783 C36.1704778,101.821326 36.196307,101.809199 36.2229972,101.796206 C36.2341899,101.792741 36.2471045,101.789277 36.2643239,101.783213 C36.4520161,101.716516 36.6259327,101.648953 36.8136249,101.595249 C37.7512249,101.312003 38.0585924,101.29901 38.9832777,101.272158 C39.424957,101.258299 39.8666364,101.272158 40.2954011,101.29901 C40.3685838,101.29901 40.7646316,101.344052 40.7112512,101.33106 C40.7439682,101.335391 40.7732413,101.339722 40.7775462,101.339722 C40.911858,101.366574 41.0453089,101.392559 41.1925353,101.420278 C41.5007638,101.487841 41.7952166,101.567531 42.0896695,101.662812 C42.1895424,101.700058 42.6019486,101.877628 42.3126616,101.739037 C42.430615,101.794474 42.5425415,101.84991 42.6518851,101.905347 C42.8662675,102.026614 43.0806498,102.160874 43.2821176,102.295134 L43.2847005,102.297733 L43.3088078,102.322852 C43.4026538,102.417268 43.4964999,102.497824 43.5894851,102.57838 C43.6704166,102.659802 43.7367115,102.726499 43.8038674,102.807921 C43.8443332,102.848632 43.8710233,102.888477 43.9106281,102.929189 C43.9493719,102.968167 43.9708962,102.98809 43.980367,102.996752 C44.0535497,103.121484 44.1232885,103.262674 44.1525616,103.305983 C44.1878615,103.363152 44.2636272,103.472293 44.3256173,103.581433 C44.3273392,103.598757 44.3359489,103.635137 44.3531684,103.696637 C44.3798586,103.791052 44.4203243,103.872475 44.4461535,103.96689 C44.527085,104.233678 44.5787434,104.499599 44.6338457,104.767254 L44.6338457,104.775049 C44.6338457,104.869464 44.6476213,104.963013 44.6476213,105.071288 L44.6476213,105.299963 C44.5942409,106.324671 45.5456165,107.186535 46.5228212,107.186535 C47.6205622,107.213387 48.37047,106.337664 48.4247113,105.326815 C48.6390937,101.352714 45.2907684,98.2534702 41.6083854,97.673986 C41.52401,97.6618593 41.4387737,97.6497326 41.3535373,97.6376058 L41.3535373,94.8857056 C41.3535373,93.8618636 40.4968688,93 39.4783374,93 C38.4606669,93 37.6039984,93.8618636 37.6039984,94.8857056 L37.6039984,97.5821694 C35.55316,97.8281686 33.5884188,98.5852227 32.1798664,100.140042 C30.6266705,101.837783 29.8096069,104.316832 30.0377648,106.620044 C30.3184421,109.436042 32.03264,111.753979 34.4166752,113.168475 C36.0499416,114.138613 37.8312954,114.556119 39.652254,114.987483 C40.1077089,115.095758 40.5502492,115.216159 40.9919285,115.378137 C41.1796207,115.4457 41.3664519,115.512397 41.5541441,115.579961 C41.7547509,115.661383 41.5808343,115.59382 41.5403685,115.566968 C41.6755413,115.620672 41.8227678,115.687369 41.9562186,115.754932 C42.2635861,115.903051 42.5726756,116.078022 42.8662675,116.25386 C43.0005793,116.334416 43.1348911,116.428831 43.268342,116.523246 C43.2890054,116.537106 43.3690759,116.596873 43.4172904,116.631521 C43.4525903,116.660105 43.4870292,116.68869 43.4964999,116.698218 C43.7100213,116.887048 43.9244037,117.088872 44.1120959,117.291561 C44.2197175,117.411962 44.3127027,117.533229 44.4203243,117.655363 C44.1792518,117.38511 44.366944,117.5878 44.4737047,117.748912 C44.6217921,117.978453 44.755243,118.207129 44.8749182,118.43667 C44.8886938,118.46179 44.9007474,118.485177 44.9102182,118.5051 C44.9437961,118.595184 44.979957,118.687001 45.0092301,118.786613 C45.0712202,118.998831 45.1220176,119.200654 45.1710931,119.412005 C45.1702321,119.386886 45.173676,119.36783 45.1831467,119.366097 C45.1831467,119.366097 45.1900345,119.437125 45.1960613,119.515949 C45.2253344,119.648477 45.2158637,119.63635 45.2003662,119.579181 C45.205532,119.643279 45.2098369,119.700448 45.2098369,119.716906 C45.2236124,119.932588 45.2236124,120.133546 45.2098369,120.349228 C45.2098369,120.443643 45.1969223,120.551051 45.1969223,120.646333 C45.1969223,120.659326 45.1952003,120.673185 45.1934784,120.687044 C45.1986442,120.677516 45.2038101,120.667988 45.2098369,120.659326 C45.2029491,120.668854 45.1977832,120.681847 45.1934784,120.693107 C45.1891735,120.730354 45.1831467,120.765001 45.1831467,120.794452 C45.1771199,120.916585 45.1495687,120.939973 45.1383761,120.907924 C45.1194347,121.050846 45.1134079,121.211092 45.0893006,121.306373 C45.0359203,121.5619 44.9558497,121.817428 44.8749182,122.073821 C44.8688914,122.09461 44.8637256,122.109335 44.8576988,122.126659 C44.8671695,122.105871 44.8757792,122.085082 44.8886938,122.060829 C44.8749182,122.087681 44.8645866,122.113666 44.851672,122.140518 C44.8120672,122.250525 44.7957087,122.273912 44.818094,122.215877 C44.7939868,122.27218 44.7690185,122.327616 44.7414674,122.383919 C44.6217921,122.640313 44.4599291,122.868988 44.3127027,123.111523 L44.3127027,123.112389 C44.3075368,123.11672 44.3040929,123.119318 44.2997881,123.124515 C44.205942,123.219797 44.138786,123.313346 44.0458009,123.407761 C43.9381793,123.515169 43.8314186,123.623444 43.7100213,123.717859 C43.6790263,123.746443 43.657502,123.766366 43.6411435,123.78369 C43.6333947,123.788887 43.6256459,123.792352 43.6170362,123.798415 C43.3484125,123.960393 43.0944254,124.121505 42.8128871,124.269625 C42.7810311,124.289547 42.7483141,124.306005 42.7155971,124.32073 C42.7121532,124.321596 42.7095703,124.322463 42.7061264,124.324195 C42.5322098,124.390892 42.3445176,124.445462 42.170601,124.499166 C41.9829088,124.553737 41.782302,124.606574 41.5808343,124.647286 C41.5033467,124.658546 41.2183645,124.714849 41.1796207,124.727842 C41.0918014,124.734771 40.8335094,124.759025 40.7637706,124.768553 C40.523559,124.781546 40.2824865,124.795405 40.0276384,124.795405 C39.5859591,124.808398 39.1434188,124.795405 38.7026004,124.75556 C38.6457762,124.746898 38.4623889,124.729574 38.3573501,124.71918 C38.3117185,124.713116 38.2273431,124.70099 38.2195944,124.70099 C38.0861435,124.674138 37.9389171,124.647286 37.8046052,124.620434 C37.4963768,124.553737 37.2019239,124.472314 36.907471,124.377899 C36.8075981,124.339786 36.3960529,124.163083 36.6844789,124.301674 C36.5665256,124.246237 36.454599,124.190801 36.3443945,124.135365 C36.1179585,124.014097 35.9164907,123.878971 35.7021084,123.744711 L35.6986645,123.742978 C35.6917767,123.735183 35.6857499,123.727387 35.6754182,123.717859 C35.5824331,123.623444 35.487726,123.542887 35.3947409,123.461465 C35.3138094,123.380909 35.2466535,123.313346 35.1803585,123.23279 C35.1398928,123.192079 35.1132026,123.151368 35.0727368,123.111523 C35.0331321,123.071678 35.0116077,123.050023 35.002998,123.042227 C34.9263714,122.91403 34.8531886,122.769376 34.8316643,122.733862 C34.7963644,122.677559 34.7205988,122.571017 34.6577477,122.464475 C34.6577477,122.448884 34.6508599,122.412504 34.6310575,122.344074 C34.6043674,122.248793 34.5639016,122.168237 34.5372114,122.073821 C34.453697,121.811364 34.4313117,121.517725 34.3624338,121.246606 C34.3607119,121.15912 34.3495192,121.070768 34.3495192,120.982416 L34.3495192,120.753741 C34.4166752,119.729899 33.4386095,118.867169 32.4743193,118.867169 C31.4032685,118.867169 30.6671363,119.729899 30.5999804,120.753741 C30.5199099,121.966413 30.9082088,123.246649 31.4170441,124.324195 C32.5285606,126.627406 34.9522006,128.002057 37.4033917,128.392711 C37.4696866,128.403105 37.5368425,128.4135 37.6039984,128.422162 L37.6039984,131.114294 C37.6039984,132.138136 38.4606669,133 39.4783374,133 C40.4830933,133 41.3535373,132.138136 41.3535373,131.114294 L41.3535373,128.515711 C43.4060977,128.2905 45.3794486,127.555101 46.8043595,126.008077 C48.3566944,124.324195 49.1608435,121.858139 48.9731513,119.554928 C48.7458544,116.752788 47.0583466,114.434851 44.7010016,112.993504" id="Fill-22" fill="#DA6265"></path>
                <path d="M45.046,122 C45.024,122.047 45.009,122.08 45,122.104 C45.013,122.075 45.026,122.046 45.039,122.017 C45.041,122.012 45.044,122.005 45.046,122" id="Fill-24" fill="#DA6265"></path>
                <path d="M45.014,119.056 C45.01,119.037 45.005,119.019 45,119 C45.002,119.055 45.021,119.14 45.035,119.194 C45.034,119.169 45.031,119.145 45.029,119.12 C45.025,119.101 45.02,119.08 45.014,119.056" id="Fill-26" fill="#DA6265"></path>
                <path d="M45.0687731,121 C44.9997731,121.116 44.9917731,121.218 45.0057731,121.255 C45.0177731,121.159 45.0377731,121.072 45.0687731,121.008 L45.0687731,121 Z" id="Fill-28" fill="#DA6265"></path>
                <path d="M105.106958,59.5477784 C101.117728,57.7003348 97.1276344,55.8528913 93.1384043,54.0054477 C92.5735729,53.7505681 92.0096051,53.4800837 91.4456373,53.2234702 C90.51807,52.7926023 89.4169078,52.9677237 88.8658949,53.8979475 C88.395202,54.7206711 88.6102525,56.0687587 89.5378197,56.4874894 C92.6668478,57.9361418 95.7958758,59.3847942 98.9249039,60.8334465 C92.3472948,62.8464751 86.1013299,65.9813207 80.6447472,70.2007049 C74.7744729,74.7451907 69.7773555,80.4218966 66.3253199,87.0288264 C64.4175023,90.6838344 62.9527407,94.5945889 62.0528104,98.6258477 C61.8248051,99.6245596 62.348181,100.675288 63.3698868,100.944905 C64.2965904,101.187648 65.4374808,100.607667 65.6663499,99.6106886 C66.0429042,97.9114913 66.5127334,96.2261651 67.0905197,94.5807179 C67.3729354,93.7579944 67.6812608,92.9491418 68.0180869,92.1532933 C67.9101298,92.4229108 68.1251804,91.9105508 68.1519537,91.8299256 C68.2322738,91.6279292 68.3264124,91.4389369 68.4196873,91.2369405 C68.5950096,90.8459517 68.7824231,90.454096 68.9707002,90.0631072 C69.7367637,88.4991522 70.5831472,86.9889473 71.5107144,85.5324925 C71.9934985,84.778257 72.4901011,84.0222876 73.0152043,83.2940602 C73.2561645,82.9706925 73.4850335,82.6473249 73.7268574,82.3230903 C73.7536308,82.2962152 73.9419079,82.0396018 73.7665856,82.2554692 C73.8201323,82.1878481 73.8883612,82.1072229 73.9419079,82.0396018 C74.0895932,81.8376054 74.2502333,81.648613 74.4117371,81.4596207 C76.6278801,78.7096953 79.1273024,76.2155165 81.867685,73.9900882 C82.0421437,73.854846 82.2166023,73.7065997 82.3910609,73.5722244 C82.4454713,73.5314783 82.8082071,73.2488567 82.6061114,73.397103 C82.9826657,73.0997435 83.3721749,72.8171219 83.7608204,72.5336334 C84.4871556,72.0074024 85.2255821,71.4950424 85.9786907,70.9965534 C87.4952718,69.9987085 89.0679905,69.0814888 90.6795738,68.2448942 C91.6062774,67.7602762 92.5467995,67.3016663 93.514095,66.8699315 C93.7291455,66.7754353 93.9312411,66.6818061 94.145428,66.586443 C94.2127932,66.5604349 94.8035344,66.3038214 94.6023024,66.3853135 C95.0850864,66.1824502 95.5834163,65.9804537 96.0800189,65.7914614 C97.5888271,65.2114803 99.1278632,64.6947856 100.679854,64.2431112 C99.4560527,66.9072098 98.2313876,69.5721753 97.0067225,72.2371408 C96.7510801,72.8032509 96.4833465,73.369361 96.2277042,73.9363381 C95.7976032,74.8665619 95.9729255,75.9719071 96.899629,76.5250131 C97.7054207,76.996627 99.0484068,76.7816266 99.4785078,75.8514028 C101.31896,71.8461521 103.159412,67.8409014 104.999865,63.8356507 C105.254644,63.2695406 105.523241,62.7034305 105.778883,62.1364534 C106.168392,61.2877217 106.101027,60.0063883 105.106958,59.5477784" id="Fill-30" fill="#DA6265"></path>
            </g>
        </g>
    </g>
</svg>