<?xml version="1.0" encoding="UTF-8"?>
<svg width="345px" height="345px" viewBox="0 0 345 345" version="1.1" xmlns="http://www.w3.org/2000/svg" xmlns:xlink="http://www.w3.org/1999/xlink">
    <!-- Generator: Sketch 47.1 (45422) - http://www.bohemiancoding.com/sketch -->
    <title>Page 1</title>
    <desc>Created with Sketch.</desc>
    <defs>
        <polygon id="path-1" points="344.186697 345 0.00314692378 345 0.00314692378 0.81105549 344.186697 0.81105549 344.186697 345"></polygon>
    </defs>
    <g id="Page-1" stroke="none" stroke-width="1" fill="none" fill-rule="evenodd">
        <g id="10---" transform="translate(-461.000000, -226.000000)">
            <g id="Page-1" transform="translate(461.000000, 226.000000)">
                <g id="Group-3">
                    <mask id="mask-2" fill="white">
                        <use xlink:href="#path-1"></use>
                    </mask>
                    <g id="Clip-2"></g>
                    <path d="M172.094922,5.30666089 C79.6787615,5.30666089 4.49875233,80.4956613 4.49875233,172.907326 C4.49875233,265.323486 79.6787615,340.507991 172.094922,340.507991 C264.511082,340.507991 339.691091,265.323486 339.691091,172.907326 C339.691091,80.4956613 264.511082,5.30666089 172.094922,5.30666089 M172.094922,345.003596 C77.2061785,345.003596 0.00314692378,267.800565 0.00314692378,172.907326 C0.00314692378,78.0140871 77.2061785,0.81105549 172.094922,0.81105549 C266.983665,0.81105549 344.186697,78.0140871 344.186697,172.907326 C344.186697,267.800565 266.983665,345.003596 172.094922,345.003596" id="Fill-1" fill="#0971B2" mask="url(#mask-2)"></path>
                </g>
                <path d="M134.992982,198.818862 C137.575687,198.818862 140.956519,199.788922 143.028064,201.118263 L153.116755,207.598802 C155.24659,208.968563 157.739618,211.681138 158.923357,213.913174 L183.454571,260.278443 C183.983666,261.27994 185.647179,262.586826 186.745726,262.86976 L209.263685,268.568862 L206.246045,256.097305 C205.609336,253.47006 206.026336,249.657186 207.219043,247.232036 L215.231706,230.947605 C216.375091,228.621257 218.926409,225.877246 221.159372,224.561377 L261.437912,200.929641 C262.401942,200.368263 263.576714,198.679641 263.778488,197.583832 L266.885805,180.351796 C267.109998,179.125749 266.675063,176.884731 266.020419,175.833832 L259.321528,165.118263 C257.958434,162.94012 256.927146,159.356287 256.927146,156.782934 L256.927146,138.526946 C256.927146,137.808383 256.187308,136.761976 255.514729,136.519461 L243.991202,132.387725 C242.547398,131.871257 239.919854,131.435629 238.256341,131.435629 L238.032148,131.44012 L208.972233,132.239521 C206.609238,132.297904 203.102857,131.817365 200.883345,131.125749 L171.088077,121.86976 C167.891083,120.881737 165.483249,117.603293 165.483249,114.257485 L165.483249,81.5943114 C165.483249,81.244012 165.164894,80.9206587 164.815153,80.9116766 L125.433386,80.0718563 C125.074677,80.0718563 124.760807,80.3727545 124.747355,80.7140719 L121.79249,155.884731 C121.649006,159.495509 118.595496,162.437126 114.985986,162.437126 L70.6316158,162.437126 L88.5042927,180.167665 C90.2350638,181.883234 92.2124472,184.887725 93.1047359,187.155689 L98.0863074,199.788922 C98.5481453,200.961078 100.099562,202.672156 101.216044,203.242515 L115.277437,210.428144 C115.618211,210.598802 116.15179,210.437126 116.340113,210.113772 L119.922719,203.920659 C121.438265,201.306886 124.854968,199.236527 127.872608,199.106287 L134.575983,198.832335 C134.710498,198.823353 134.849498,198.818862 134.992982,198.818862 M210.711972,275 C210.196328,275 209.667232,274.928144 209.133653,274.793413 L185.257083,268.748503 C182.508475,268.052395 179.428062,265.631737 178.096355,263.116766 L153.569625,216.755988 C152.874626,215.44012 151.099017,213.508982 149.848019,212.70509 L139.754844,206.224551 C138.642846,205.51497 136.41885,204.890719 134.988498,204.890719 L134.827079,204.89521 L128.123704,205.169162 C127.168641,205.214072 125.644128,206.134731 125.164355,206.961078 L121.577264,213.154192 C120.357654,215.260479 118.070884,216.567365 115.600275,216.567365 C114.528632,216.567365 113.461473,216.315868 112.519862,215.830838 L98.4629519,208.64521 C96.0371822,207.405689 93.4455095,204.553892 92.450092,202.016467 L87.4685204,189.383234 C86.8901021,187.923653 85.3521372,185.583832 84.2401392,184.479042 L63.7174994,164.121257 C61.4531487,161.875749 61.9643091,159.796407 62.291631,159.001497 C62.6144692,158.211078 63.7174994,156.36976 66.901042,156.36976 L114.985986,156.36976 C115.353663,156.36976 115.72134,156.019461 115.734791,155.646707 L118.689657,80.4760479 C118.83314,76.9056886 121.846296,74 125.415451,74 L125.558935,74.004491 L164.945185,74.8488024 C168.581598,74.9251497 171.540947,77.9520958 171.540947,81.5943114 L171.540947,114.257485 C171.540947,114.922156 172.244914,115.874251 172.881622,116.076347 L202.681374,125.332335 C204.183468,125.79491 206.815495,126.176647 208.541783,126.176647 L208.806331,126.172156 L237.866245,125.372754 C240.278563,125.30988 243.798396,125.875749 246.031359,126.679641 L257.554886,130.802395 C260.648752,131.911677 262.989328,135.230539 262.989328,138.526946 L262.989328,156.782934 C262.989328,158.206587 263.697778,160.694611 264.455551,161.898204 L271.149958,172.613772 C272.60273,174.94012 273.338083,178.730539 272.849342,181.434132 L269.737542,198.666168 C269.226381,201.495509 266.979966,204.715569 264.50039,206.166168 L224.221851,229.802395 C223.015692,230.516467 221.284921,232.375749 220.666148,233.633234 L212.653485,249.917665 C212.088518,251.067365 211.832938,253.416168 212.133357,254.664671 L215.487286,268.492515 C215.917737,270.257485 215.60835,271.919162 214.630868,273.172156 C213.720644,274.330838 212.285808,275 210.711972,275" id="Fill-4" fill="#FFEC00"></path>
                <path d="M205.737053,182.876357 C203.420982,185.378166 203.420982,189.403804 205.737053,191.905614 L215.993934,203 C219.417306,199.30642 222.840678,195.61284 226.259639,191.91926 C228.58012,189.417451 228.58012,185.391812 226.259639,182.890003 C223.943569,180.388194 220.211387,180.388194 217.895317,182.890003 L216.002757,184.92784 L214.101374,182.876357 C211.785304,180.374548 208.053123,180.374548 205.737053,182.876357" id="Fill-6" fill="#FFEC00"></path>
            </g>
        </g>
    </g>
</svg>