<?xml version="1.0" encoding="UTF-8"?>
<svg width="194px" height="194px" viewBox="0 0 194 194" version="1.1" xmlns="http://www.w3.org/2000/svg" xmlns:xlink="http://www.w3.org/1999/xlink">
    <!-- Generator: Sketch 47.1 (45422) - http://www.bohemiancoding.com/sketch -->
    <title>Page 1</title>
    <desc>Created with Sketch.</desc>
    <defs>
        <polygon id="path-1" points="193.332372 0.666958621 193.332372 194 0.000936551724 194 0.000936551724 0.666958621 193.332372 0.666958621"></polygon>
    </defs>
    <g id="Page-1" stroke="none" stroke-width="1" fill="none" fill-rule="evenodd">
        <g id="10---" transform="translate(-218.000000, -294.000000)">
            <g id="Page-1" transform="translate(218.000000, 294.000000)">
                <g id="Group-3">
                    <mask id="mask-2" fill="white">
                        <use xlink:href="#path-1"></use>
                    </mask>
                    <g id="Clip-2"></g>
                    <path d="M96.6664538,3.34282069 C44.8403572,3.34282069 2.67679862,45.5077172 2.67679862,97.3338138 C2.67679862,149.15991 44.8403572,191.324807 96.6664538,191.324807 C148.49255,191.324807 190.657447,149.15991 190.657447,97.3338138 C190.657447,45.5077172 148.49255,3.34282069 96.6664538,3.34282069 M96.6664538,194.000669 C43.3646193,194.000669 0.000936551724,150.635648 0.000936551724,97.3338138 C0.000936551724,44.0319793 43.3646193,0.666958621 96.6664538,0.666958621 C149.968288,0.666958621 193.333309,44.0319793 193.333309,97.3338138 C193.333309,150.635648 149.968288,194.000669 96.6664538,194.000669" id="Fill-1" fill="#886BF3" mask="url(#mask-2)"></path>
                </g>
                <path d="M92.4790446,72 L74.5209554,72 C73.681388,72 73,71.328 73,70.5 C73,69.672 73.681388,69 74.5209554,69 L92.4790446,69 C93.318612,69 94,69.672 94,70.5 C94,71.328 93.318612,72 92.4790446,72" id="Fill-4" fill="#02D980"></path>
                <path d="M99.5371291,82 L74.4628709,82 C73.6553662,82 73,81.328 73,80.5 C73,79.672 73.6553662,79 74.4628709,79 L99.5371291,79 C100.344634,79 101,79.672 101,80.5 C101,81.328 100.344634,82 99.5371291,82" id="Fill-6" fill="#02D980"></path>
                <path d="M109.501682,92 L74.4983177,92 C73.6712463,92 73,91.328 73,90.5 C73,89.672 73.6712463,89 74.4983177,89 L109.501682,89 C110.328754,89 111,89.672 111,90.5 C111,91.328 110.328754,92 109.501682,92" id="Fill-8" fill="#02D980"></path>
                <path d="M79.8735337,57.9320506 L119.126466,57.9320506 L113.752449,46.0679494 L85.2475512,46.0679494 L79.8735337,57.9320506 Z M121.486513,61 L77.5134869,61 C76.9981517,61 76.5178001,60.7341111 76.2392769,60.2936899 C75.9607537,59.8532687 75.9230791,59.2996743 76.1383627,58.8251648 L82.9009596,43.8931142 C83.1498813,43.350428 83.6867449,43 84.2760838,43 L114.721225,43 C115.313255,43 115.850119,43.3490645 116.096349,43.8931142 L122.861637,58.8265283 C123.076921,59.3010378 123.039246,59.8546322 122.760723,60.2950534 C122.4822,60.7341111 122.001848,61 121.486513,61 L121.486513,61 Z" id="Fill-10" fill="#02D980"></path>
                <path d="M104.442637,45 C103.582973,45 102.885274,44.3429896 102.885274,43.5334589 C102.885274,40.995365 100.693892,38.9317787 98.0013843,38.9317787 C95.3061083,38.9317787 93.1147257,40.995365 93.1147257,43.5334589 C93.1147257,44.3429896 92.4170272,45 91.5573629,45 C90.6976986,45 90,44.3429896 90,43.5334589 C90,39.3789108 93.5895484,36 98.0013843,36 C102.410452,36 106,39.3789108 106,43.5334589 C106,44.3429896 105.303686,45 104.442637,45" id="Fill-12" fill="#02D980"></path>
                <path d="M130.506888,141 L66.4944386,141 C65.6695085,141 65,140.329126 65,139.502513 L65,53.4974874 C65,52.6708743 65.6695085,52 66.4944386,52 L78.1337903,52 C78.9587204,52 79.6282288,52.6708743 79.6282288,53.4974874 C79.6282288,54.3227693 78.9587204,54.9936436 78.1337903,54.9936436 L67.9888771,54.9936436 L67.9888771,138.005025 L129.011121,138.005025 L129.011121,54.9936436 L118.864879,54.9936436 C118.039949,54.9936436 117.370441,54.3227693 117.370441,53.4974874 C117.370441,52.6708743 118.039949,52 118.864879,52 L130.505559,52 C131.329161,52 131.999998,52.6708743 131.999998,53.4974874 L131.999998,139.502513 C132.001326,140.329126 131.33049,141 130.506888,141" id="Fill-14" fill="#02D980"></path>
                <path d="M140.490439,59 C139.657162,59 138.980879,58.3283444 138.980879,57.5007688 L138.980879,53.9932342 C138.980879,51.0067658 136.042268,48.9984623 133.29688,48.9984623 L115.509561,48.9984623 C114.676283,48.9984623 114,48.3268068 114,47.4992312 C114,46.6716556 114.676283,46 115.509561,46 L133.29688,46 C138.01476,46 142,49.6607893 142,53.9932342 L142,57.5007688 C142,58.3283444 141.323717,59 140.490439,59" id="Fill-16" fill="#02D980"></path>
                <path d="M134.321362,155 L63.6799763,155 C58.9740295,155 55,151.332958 55,146.989667 L55,141.958051 C55,141.124815 55.6743808,140.448566 56.5053142,140.448566 C57.3362477,140.448566 58.0106284,141.124815 58.0106284,141.958051 L58.0106284,146.989667 C58.0106284,149.975093 60.9423115,151.98103 63.6799763,151.98103 L134.321362,151.98103 C137.059027,151.98103 139.989372,149.975093 139.989372,146.989667 L139.989372,69.5094849 C139.989372,68.6762492 140.663752,68 141.494686,68 C142.325619,68 143,68.6762492 143,69.5094849 L143,146.989667 C143,151.332958 139.02597,155 134.321362,155" id="Fill-18" fill="#02D980"></path>
                <path d="M56.5095606,131 C55.6762831,131 55,130.328 55,129.5 L55,53.9973333 C55,49.664 58.9865817,46 63.7031198,46 L81.4904394,46 C82.3237169,46 83,46.672 83,47.5 C83,48.328 82.3237169,49 81.4904394,49 L63.7044616,49 C60.9590741,49 58.0191211,51.008 58.0191211,53.9973333 L58.0191211,129.5 C58.0191211,130.328 57.3441798,131 56.5095606,131" id="Fill-20" fill="#02D980"></path>
                <path d="M121.507448,132 C121.100234,132 120.696999,131.840026 120.401205,131.526476 L116.699136,127.584706 L112.997067,131.526476 C112.713211,131.825948 112.309976,132 111.890824,132 L111.889497,132 C111.469019,132 111.06711,131.825948 110.78458,131.526476 L107.09047,127.585986 L103.397687,131.525196 C103.115157,131.825948 102.710595,131.99872 102.291443,131.99872 C101.868312,131.99872 101.46773,131.824668 101.1852,131.525196 L96.3861728,126.406015 C95.8330511,125.816029 95.8794762,124.906095 96.4909609,124.37242 C97.1024455,123.840026 98.0455379,123.884818 98.5986596,124.474804 L102.291443,128.414014 L105.984227,124.474804 C106.549287,123.870741 107.631654,123.870741 108.196714,124.474804 L111.89215,128.415294 L115.592893,124.473524 C115.878075,124.172772 116.279984,124 116.699136,124 C117.119615,124 117.521523,124.171493 117.805379,124.473524 L122.613691,129.592705 C123.166813,130.181411 123.120388,131.092625 122.51023,131.6263 C122.223721,131.87458 121.865584,132 121.507448,132" id="Fill-22" fill="#02D980"></path>
                <path d="M140.506667,64 C140.106667,64 139.72,63.8389262 139.44,63.557047 C139.16,63.261745 139,62.8724832 139,62.4832215 C139,62.0939597 139.16,61.704698 139.44,61.4228188 C140,60.8590604 141,60.8590604 141.56,61.4228188 C141.84,61.704698 142,62.0939597 142,62.4832215 C142,62.8724832 141.84,63.261745 141.56,63.557047 C141.28,63.8389262 140.893333,64 140.506667,64" id="Fill-24" fill="#02D980"></path>
                <path d="M56.4933333,138 C56.1066667,138 55.72,137.838926 55.44,137.557047 C55.16,137.275168 55,136.885906 55,136.483221 C55,136.09396 55.16,135.704698 55.44,135.422819 C56,134.85906 57,134.85906 57.56,135.422819 C57.8413333,135.691275 58,136.080537 58,136.483221 C58,136.885906 57.8413333,137.275168 57.56,137.557047 C57.2786667,137.838926 56.892,138 56.4933333,138" id="Fill-26" fill="#02D980"></path>
                <polygon id="Stroke-28" stroke="#02D980" points="92 106.037721 86.9623546 106.037721 86.9623546 101 81.0362765 101 81.0362765 106.037721 76 106.037721 76 111.963647 81.0362765 111.963647 81.0362765 117 86.9623546 117 86.9623546 111.963647 92 111.963647"></polygon>
            </g>
        </g>
    </g>
</svg>