<?xml version="1.0" encoding="UTF-8"?>
<svg width="194px" height="194px" viewBox="0 0 194 194" version="1.1" xmlns="http://www.w3.org/2000/svg" xmlns:xlink="http://www.w3.org/1999/xlink">
    <!-- Generator: Sketch 47.1 (45422) - http://www.bohemiancoding.com/sketch -->
    <title>Page 1</title>
    <desc>Created with Sketch.</desc>
    <defs>
        <polygon id="path-1" points="96.6666545 0.667627586 0 0.667627586 0 194 96.6666545 194 193.333309 194 193.333309 0.667627586"></polygon>
    </defs>
    <g id="Page-1" stroke="none" stroke-width="1" fill="none" fill-rule="evenodd">
        <g id="10---" transform="translate(-71.000000, -100.000000)">
            <g id="Page-1" transform="translate(71.000000, 100.000000)">
                <path d="M187.350847,116.265045 L180.256572,119.090898 L177.52317,119.090898 L170.428895,116.265045 L170.428895,112.172752 C173.007173,113.356627 175.867616,114.035791 178.889871,114.035791 C181.912126,114.035791 184.771232,113.356627 187.350847,112.174084 L187.350847,116.265045 Z M156.890264,140.99858 C156.890264,141.928101 156.130689,142.684503 155.198604,142.684503 L153.505607,142.684503 L153.505607,151.108793 L139.968313,151.108793 L139.968313,138.682765 C139.968313,129.929547 145.962005,122.486715 154.544674,120.589052 L156.890264,120.06836 L156.890264,140.99858 Z M136.371027,146.57571 L122.833734,146.57571 L122.833734,139.833348 L118.357855,120.346684 L121.796004,121.107081 C130.377335,123.007407 136.371027,130.448907 136.371027,139.204789 L136.371027,146.57571 Z M122.833734,151.630817 L136.371027,151.630817 L136.371027,149.944893 L122.833734,149.944893 L122.833734,151.630817 Z M119.449076,143.203863 L75.4512,143.203863 L75.4512,140.026444 L75.8858162,138.148756 L119.013123,138.148756 L119.449076,140.026444 L119.449076,143.203863 Z M75.4512,151.630817 L119.449076,151.630817 L119.449076,146.57571 L75.4512,146.57571 L75.4512,151.630817 Z M72.0866014,146.57571 L58.5279113,146.57571 L58.5279113,139.204789 C58.5279113,130.448907 64.5229412,123.007407 73.1042721,121.108412 L76.537072,120.348016 L72.1106725,139.455147 L72.0866014,146.57571 Z M72.0718914,151.630817 L58.5279113,151.630817 L58.5279113,149.944893 L72.0772405,149.944893 L72.0718914,151.630817 Z M77.8382462,129.723135 L89.218506,129.723135 C91.1602377,130.795148 93.3868103,131.407726 95.7578091,131.407726 L99.1424669,131.407726 C101.513466,131.407726 103.741376,130.795148 105.680433,129.723135 L117.060693,129.723135 L118.232151,134.778241 L76.6681255,134.778241 L77.8382462,129.723135 Z M80.1998842,119.538346 L82.2793558,119.077581 C82.51338,121.818205 83.5711691,124.324451 85.2066635,126.35262 L78.6205555,126.35262 L80.1998842,119.538346 Z M109.275044,118.339823 C109.05573,123.722526 104.601247,128.038543 99.1424669,128.038543 L95.7578091,128.038543 C90.2990289,128.038543 85.8445465,123.722526 85.6252324,118.338491 L88.9884937,117.592743 L88.9884937,112.692113 C91.5681084,113.877319 94.4272147,114.556483 97.4494694,114.556483 C100.471724,114.556483 103.332168,113.877319 105.911782,112.694776 L105.911782,117.595406 L109.275044,118.339823 Z M80.5275179,94.3347242 L80.5275179,94.2641445 C82.4465159,93.9312212 83.9121757,92.2692683 83.9121757,90.2677337 L83.9121757,86.1075247 C83.9121757,84.6120334 83.5577963,83.1178739 82.8878186,81.7848491 C82.451865,80.9152536 82.2205155,79.941786 82.2205155,78.9696501 L82.2205155,74.5111418 C82.2205155,72.432369 83.9175248,70.7424506 86.0036829,70.7424506 C86.5867373,70.7424506 87.1724663,70.8809466 87.6966804,71.1406268 L97.4494694,75.9973112 L107.203596,71.1406268 C107.72781,70.879615 108.312201,70.7424506 108.896593,70.7424506 C110.982751,70.7424506 112.679761,72.432369 112.679761,74.5111418 L112.679761,78.9696501 C112.679761,79.9444494 112.448411,80.9152536 112.01112,81.7848491 C111.341142,83.1178739 110.9881,84.6120334 110.9881,86.1075247 L110.9881,90.2677337 C110.9881,92.2692683 112.45376,93.9312212 114.372758,94.2641445 L114.372758,94.3347242 C114.372758,103.627278 106.781015,111.187299 97.4494694,111.187299 C88.1192611,111.187299 80.5275179,103.627278 80.5275179,94.3347242 L80.5275179,94.3347242 Z M79.3319889,90.7617918 C76.8285992,88.2688625 75.4512,84.9569419 75.4512,81.4319505 L75.4512,72.4283739 C75.4512,62.20763 83.8025187,53.891207 94.0661489,53.891207 L100.834127,53.891207 C111.097757,53.891207 119.449076,62.20763 119.449076,72.4283739 L119.449076,81.4319505 C119.449076,84.9542785 118.071677,88.2688625 115.56695,90.7617918 C115.16844,91.1612997 114.372758,90.8363666 114.372758,90.2677337 L114.372758,86.1075247 C114.372758,85.1340571 114.604108,84.1619212 115.040061,83.290994 C115.711376,81.9593009 116.064418,80.4638097 116.064418,78.9696501 L116.064418,74.5111418 C116.064418,70.5733256 112.849595,67.3719355 108.896593,67.3719355 C107.789325,67.3719355 106.679382,67.6329474 105.689794,68.1256738 L97.4494694,72.2299517 L89.2104823,68.1256738 C88.2208945,67.6329474 87.1122887,67.3719355 86.0036829,67.3719355 C82.0506808,67.3719355 78.8358577,70.5733256 78.8358577,74.5111418 L78.8358577,78.9696501 C78.8358577,80.4638097 79.1888999,81.9593009 79.8588775,83.290994 C80.2961684,84.1619212 80.5275179,85.1353888 80.5275179,86.1075247 L80.5275179,90.2677337 C80.5275179,90.8363666 79.7331731,91.1612997 79.3319889,90.7617918 L79.3319889,90.7617918 Z M112.62092,119.077581 L114.700392,119.538346 L116.279721,126.35262 L109.693613,126.35262 C111.329107,124.324451 112.386896,121.818205 112.62092,119.077581 L112.62092,119.077581 Z M37.077927,133.968572 L27.3478718,131.199982 L20.6815269,137.83714 C22.7944306,132.390516 24.7174404,126.854668 26.3943906,121.284196 L27.0148889,119.22673 C31.5081524,123.297716 34.9489759,128.320862 37.077927,133.968572 L37.077927,133.968572 Z M15.9943577,140.517838 C13.2917131,133.912641 10.8886195,127.134323 8.83589348,120.316055 L7.53338196,115.994711 L7.53338196,112.694776 C10.1116594,113.877319 12.972103,114.556483 15.9943577,114.556483 C19.0166123,114.556483 21.877056,113.877319 24.4553334,112.694776 L24.4553334,115.994711 L23.1528219,120.316055 C21.0987585,127.134323 18.6956649,133.912641 15.9943577,140.517838 L15.9943577,140.517838 Z M161.96792,93.8140322 L161.96792,82.9700559 C168.199648,85.6587442 174.991697,87.0730021 181.779735,87.0730021 L190,87.0730021 C189.728532,84.4069527 189.323336,81.7821858 188.832554,79.186716 L187.749356,78.6473804 L182.497855,78.6473804 L185.881175,83.7038188 L181.781072,83.7038188 C174.96094,83.7038188 168.138133,82.1577232 161.969257,79.2572958 L161.969257,78.6473804 L158.584599,78.6473804 L158.584599,83.1817951 C156.371399,79.8206019 155.198604,75.9293949 155.198604,71.9063503 C155.198604,61.686938 163.549923,53.370515 173.812216,53.370515 L179.835329,53.370515 C179.238901,52.2319175 178.617066,51.1093003 177.973834,50 L173.812216,50 C161.683079,50 151.813946,59.8278945 151.813946,71.9063503 C151.813946,76.6511725 153.210068,81.2441818 155.852534,85.1913199 L158.583262,89.2702956 L158.583262,93.8140322 C158.583262,100.561721 161.930476,106.530369 167.0429,110.205842 L167.0429,114.370046 L153.810507,117.295775 C146.401971,118.937753 140.640965,124.076756 138.064025,130.75786 C135.393475,124.333773 129.743464,119.415831 122.528834,117.819131 L109.295103,114.890738 L109.295103,110.726534 C114.410202,107.051061 117.757416,101.081081 117.757416,94.3347242 L117.757416,93.3106523 C117.822943,93.2533895 117.899168,93.2067802 117.960683,93.1441906 C121.103292,90.0160437 122.833734,85.8571664 122.833734,81.4319505 L122.833734,72.4283739 C122.833734,60.3485865 112.964601,50.520692 100.834127,50.520692 L94.0661489,50.520692 C81.9356746,50.520692 72.0665422,60.3485865 72.0665422,72.4283739 L72.0665422,81.4319505 C72.0665422,85.8571664 73.7956463,90.0160437 76.936919,93.1415273 C76.9984339,93.2041168 77.0759962,93.2520578 77.1428602,93.3106523 L77.1428602,94.3347242 C77.1428602,101.081081 80.4900741,107.051061 85.6051732,110.726534 L85.6051732,114.890738 L72.3714423,117.819131 C65.0551789,119.438469 59.3490017,124.472269 56.7252567,131.030857 C54.7888741,126.184826 51.1701922,122.171104 46.4549401,119.754081 L46.4549401,74.1129656 C46.4549401,68.1456492 41.983073,63.1997413 36.2020081,62.4220325 C35.5601133,57.3709209 31.8772419,53.1587759 26.8089476,51.8976626 C23.1394491,50.9841211 19.3589562,50.520692 15.5784633,50.520692 L14.7921422,50.520692 C14.152922,51.6433092 13.5377728,52.780575 12.9440201,53.9311578 C13.3251452,53.921836 13.7076075,53.891207 14.0887325,53.891207 L15.5784633,53.891207 C19.0821391,53.891207 22.5858148,54.3200122 25.9905318,55.1669689 C30.0692383,56.1830507 32.9163091,59.8159093 32.9163091,64.0027522 L32.9163091,65.6873438 L34.6093066,65.6873438 C39.2750794,65.6873438 43.0702823,69.4666887 43.0702823,74.1129656 L43.0702823,118.36113 C42.4190266,118.153386 41.754398,117.96828 41.0737221,117.817799 L27.8399911,114.890738 L27.8399911,110.726534 C32.953753,107.051061 36.3009668,101.082413 36.3009668,94.3347242 L36.3009668,72.4283739 L32.9163091,72.4283739 L32.9163091,73.2700039 L31.4466375,74.3686507 C28.7573658,76.3781755 25.424862,77.4834807 22.062938,77.4834807 L9.63692468,77.4834807 C7.84363111,77.4834807 6.09045596,77.737834 4.41083126,78.2132484 C4.15808519,79.47303 3.92807289,80.7421335 3.72614348,82.0192271 C5.57827741,81.2614938 7.57350039,80.8539957 9.63692468,80.8539957 L22.062938,80.8539957 C25.925005,80.8539957 29.7469536,79.6408234 32.9163091,77.4488566 L32.9163091,94.3347242 C32.9163091,103.627278 25.3259032,111.187299 15.9943577,111.187299 C10.7762879,111.187299 6.10650333,108.819549 3,105.112116 C3.1604737,106.860629 3.35972854,108.598488 3.61514917,110.319036 C3.79300752,110.4562 3.96685403,110.596028 4.14872422,110.726534 L4.14872422,113.416554 C6.34721388,125.38581 10.8351283,136.558715 17.1511056,146.478496 L17.4212363,145.852601 L28.3321105,134.985986 L42.1488958,138.917143 L41.3117581,136.002067 C39.4997426,129.685847 36.2381146,123.980874 31.806366,119.221403 L40.3382176,121.111076 C48.9222232,123.007407 54.9159158,130.448907 54.9159158,139.204789 L54.9159158,151.630817 L41.3772848,151.630817 L41.3772848,144.889787 L37.9926271,144.889787 L37.9926271,151.630817 L20.6668168,151.630817 C21.5066292,152.774741 22.3745244,153.897358 23.2638162,155 L55.1445908,155 L58.3005735,155 L139.755685,155 L139.755685,154.479308 L170.21493,154.479308 C171.092187,153.375335 171.945372,152.252717 172.773149,151.108793 L156.890264,151.108793 L156.890264,145.766041 C158.860079,145.069565 160.274922,143.195873 160.274922,140.99858 L160.274922,119.32128 L164.011285,118.492967 C163.786621,119.028308 163.65958,119.615585 163.65958,120.232158 L163.65958,126.37659 C163.65958,128.864193 165.692247,130.887034 168.18895,130.887034 C168.603507,130.887034 169.008703,130.81246 169.404538,130.700597 L170.602742,136.069984 C171.478661,139.993151 173.247883,143.628673 175.747261,146.743503 C176.398517,145.728753 177.031051,144.702018 177.643525,143.661966 C175.858255,141.175695 174.579815,138.356501 173.907163,135.338884 L172.599302,129.479435 L177.521833,127.516519 L180.255235,127.516519 L184.550581,129.227745 C184.946416,128.177039 185.308819,127.111685 185.66721,126.042335 L180.90649,124.147336 L176.870577,124.147336 L168.615542,127.435286 C167.880038,127.724263 167.0429,127.150304 167.0429,126.37659 L167.0429,120.232158 C167.0429,119.458445 167.886724,118.883153 168.614205,119.174794 L176.871914,122.461413 L180.907828,122.461413 L187.534054,119.823329 C188.646672,115.512638 189.44904,111.078101 189.935811,106.551676 C186.967047,109.107195 183.111667,110.665276 178.889871,110.665276 C169.558325,110.665276 161.96792,103.105254 161.96792,93.8140322 L161.96792,93.8140322 Z" id="Fill-1" fill="#5595E6"></path>
                <g id="Group-5">
                    <mask id="mask-2" fill="white">
                        <use xlink:href="#path-1"></use>
                    </mask>
                    <g id="Clip-4"></g>
                    <path d="M184.726399,130.169986 C182.834564,135.226028 180.510578,140.069338 177.814647,144.671821 C177.203212,145.716745 176.570371,146.74829 175.918799,147.766455 C174.96753,149.258248 173.974785,150.720607 172.94324,152.153531 C172.115061,153.302814 171.261461,154.43069 170.383778,155.539834 C153.153902,177.313324 126.523723,191.324138 96.6664538,191.324138 C67.0473366,191.324138 40.6017917,177.538097 23.3612124,156.062966 C22.4714883,154.953821 21.603171,153.827283 20.7629503,152.676662 C19.5333917,150.993545 18.3627021,149.266276 17.2441917,147.501545 C10.9264814,137.535297 6.43638483,126.308717 4.23682621,114.284731 L4.23682621,111.580772 C4.05486759,111.450993 3.88093655,111.309172 3.70299172,111.172703 C3.44610897,109.444097 3.24675724,107.698097 3.08620552,105.941393 C2.82798483,103.103641 2.67546069,100.236455 2.67546069,97.3331448 C2.67546069,92.3694207 3.07015034,87.4966759 3.81404,82.740331 C4.01606759,81.4572552 4.24619172,80.1822069 4.49906069,78.9151862 C6.21830207,70.3015862 9.13097793,62.1174621 13.0350607,54.5206897 C13.63044,53.3647172 14.2458883,52.2207862 14.8854193,51.0929103 C31.0529779,22.6123724 61.6434331,3.34348966 96.6664538,3.34348966 C131.475406,3.34348966 161.902633,22.3782345 178.146454,50.5711172 C178.789999,51.6856138 179.410799,52.8134897 180.008854,53.9560828 C184.209957,61.9957103 187.277833,70.7096552 189.010454,79.8945517 C189.501474,82.5021793 189.906868,85.1392414 190.178468,87.8177793 C190.494219,90.9485379 190.657447,94.1221103 190.657447,97.3331448 C190.657447,100.730152 190.466123,104.083007 190.112909,107.387697 C189.62724,111.935324 188.824481,116.389297 187.709985,120.721517 C187.166785,122.836786 186.528592,124.913255 185.842233,126.968317 C185.485006,128.042676 185.121088,129.114359 184.726399,130.169986 M192.578716,85.4630207 C192.410137,84.0956552 192.22015,82.7363172 191.995378,81.3863448 C190.376481,71.6796552 187.30593,62.4639862 183.015185,53.9560828 C182.439874,52.8175034 181.851185,51.6842759 181.233061,50.5711172 C164.727006,20.8409517 133.014026,0.667627586 96.6664538,0.667627586 C60.0686883,0.667627586 28.1576952,21.1125517 11.749309,51.1812138 C11.1151297,52.3425379 10.5170745,53.5266069 9.92972276,54.7160276 C6.03901931,62.6017931 3.20795724,71.0909655 1.58772276,80.0002483 C1.32548828,81.4331724 1.09536414,82.8768 0.900026207,84.331131 C0.324715862,88.5870897 -0.00040137931,92.9219862 -0.00040137931,97.3331448 C-0.00040137931,98.4235586 0.0464262069,99.503269 0.0825503448,100.585655 C0.168177931,103.167862 0.348798621,105.727324 0.633777931,108.256014 C0.940164138,110.968 1.35090897,113.647876 1.87805379,116.288952 C2.25936414,118.199517 2.69686759,120.088676 3.18922621,121.95509 C4.38266069,126.48131 5.88917103,130.880428 7.69939172,135.123007 C9.08816414,138.382207 10.6669228,141.539724 12.3928538,144.603586 C13.9582331,147.383807 15.6574055,150.075724 17.4810055,152.676662 C18.2851021,153.823269 19.1079297,154.952483 19.9601917,156.062966 C37.6449641,179.104814 65.4418193,194 96.6664538,194 C128.12924,194 156.121433,178.882717 173.784799,155.539834 C174.623681,154.43069 175.43313,153.2988 176.225185,152.153531 C176.749654,151.394924 177.25673,150.625614 177.758454,149.85229 C182.154895,143.08771 185.723157,135.746483 188.330785,127.963738 C189.169668,125.459131 189.913557,122.913048 190.549074,120.324152 C190.94644,118.697228 191.300992,117.054248 191.615406,115.39789 C191.968619,113.542179 192.261626,111.667738 192.50513,109.775903 C192.748633,107.894772 192.938619,105.997586 193.071074,104.083007 C193.226274,101.85 193.333309,99.6049517 193.333309,97.3331448 C193.333309,93.3126621 193.057695,89.3564 192.578716,85.4630207" id="Fill-3" fill="#D8A8A3" mask="url(#mask-2)"></path>
                </g>
            </g>
        </g>
    </g>
</svg>