<?xml version="1.0" encoding="UTF-8"?>
<svg width="189px" height="189px" viewBox="0 0 189 189" version="1.1" xmlns="http://www.w3.org/2000/svg" xmlns:xlink="http://www.w3.org/1999/xlink">
    <!-- Generator: Sketch 47.1 (45422) - http://www.bohemiancoding.com/sketch -->
    <title>Page 1</title>
    <desc>Created with Sketch.</desc>
    <defs></defs>
    <g id="Page-1" stroke="none" stroke-width="1" fill="none" fill-rule="evenodd">
        <g id="10---" transform="translate(-854.000000, -291.000000)">
            <g id="Page-1" transform="translate(854.000000, 291.000000)">
                <g id="Group-3" fill="#94B209">
                    <path d="M94.38282,3.25588345 C43.780351,3.25588345 2.61354414,44.3340559 2.61354414,94.8244283 C2.61354414,145.314801 43.780351,186.392973 94.38282,186.392973 C144.983986,186.392973 186.152096,145.314801 186.152096,94.8244283 C186.152096,44.3340559 144.983986,3.25588345 94.38282,3.25588345 M94.38282,188.99987 C42.3400407,188.99987 0.000130344828,146.753808 0.000130344828,94.8244283 C0.000130344828,42.8963524 42.3400407,0.648986897 94.38282,0.648986897 C146.424296,0.648986897 188.764206,42.8963524 188.764206,94.8244283 C188.764206,146.753808 146.424296,188.99987 94.38282,188.99987" id="Fill-1"></path>
                </g>
                <path d="M71.3629051,158.055617 C73.3211661,157.813506 75.3694471,157.253787 77.4164234,156.550884 C77.4725228,156.557392 77.5220991,156.583425 77.5808077,156.583425 L111.68012,156.583425 C113.693176,157.270708 115.707536,157.817411 117.637095,158.055617 L71.3629051,158.055617 Z M42.7443755,153.639042 L48.6582976,153.639042 L48.6582976,143.333701 L42.7443755,143.333701 L42.7443755,153.639042 Z M42.7456801,140.39062 L48.6596022,140.39062 L48.6596022,92.7936652 L42.7456801,92.7936652 L42.7456801,140.39062 Z M51.6159109,89.8479804 L62.8149198,89.8479804 L62.8149198,80.522799 L51.6159109,80.522799 L51.6159109,89.8479804 Z M53.6133111,75.6089855 L53.6133111,73.6538735 L60.8227382,73.6538735 L60.8227382,75.6167955 C60.8227382,74.8019486 60.1599824,74.1433023 59.3419746,74.1433023 L55.0901608,74.1433023 C54.2747623,74.1433023 53.617225,74.7993452 53.6133111,75.6089855 L53.6133111,75.6089855 Z M56.5683151,77.5784159 L57.8625156,77.5784159 L57.8625156,77.0889871 L56.5683151,77.0889871 L56.5683151,77.5784159 Z M71.4046535,92.7923635 L71.4046535,127.773509 C69.3237566,129.12074 67.4176811,130.63068 65.7738378,132.320251 L65.7738378,92.7923635 L71.4046535,92.7923635 Z M51.6159109,150.785776 C51.777686,150.846955 51.9498982,150.88991 52.1338521,150.88991 L55.0901608,150.88991 C55.9081685,150.88991 56.5683151,150.232565 56.5683151,149.416417 C56.5683151,148.605475 55.9081685,147.945527 55.0901608,147.945527 L52.1338521,147.945527 C51.9498982,147.945527 51.777686,147.989784 51.6159109,148.049661 L51.6159109,145.389042 C51.777686,145.448919 51.9498982,145.493176 52.1338521,145.493176 L55.0901608,145.493176 C55.9081685,145.493176 56.5683151,144.83453 56.5683151,144.020985 C56.5683151,143.207439 55.9081685,142.548793 55.0901608,142.548793 L52.1338521,142.548793 C51.9498982,142.548793 51.777686,142.591748 51.6159109,142.652927 L51.6159109,138.566977 C51.777686,138.628156 51.9498982,138.671111 52.1338521,138.671111 L55.0901608,138.671111 C55.9081685,138.671111 56.5683151,138.012464 56.5683151,137.198919 C56.5683151,136.386676 55.9081685,135.728029 55.0901608,135.728029 L52.1338521,135.728029 C51.9498982,135.728029 51.777686,135.770985 51.6159109,135.830861 L51.6159109,133.174148 C51.777686,133.234025 51.9498982,133.27698 52.1338521,133.27698 L55.0901608,133.27698 C55.9081685,133.27698 56.5683151,132.618334 56.5683151,131.80609 C56.5683151,130.992545 55.9081685,130.332597 55.0901608,130.332597 L52.1338521,130.332597 C51.9498982,130.332597 51.777686,130.375552 51.6159109,130.436731 L51.6159109,126.301317 C51.777686,126.361194 51.9498982,126.405451 52.1338521,126.405451 L55.0901608,126.405451 C55.9081685,126.405451 56.5683151,125.748107 56.5683151,124.934561 C56.5683151,124.121016 55.9081685,123.461068 55.0901608,123.461068 L52.1338521,123.461068 C51.9498982,123.461068 51.777686,123.504023 51.6159109,123.565202 L51.6159109,120.905885 C51.777686,120.965762 51.9498982,121.008717 52.1338521,121.008717 L55.0901608,121.008717 C55.9081685,121.008717 56.5683151,120.348769 56.5683151,119.535224 C56.5683151,118.721679 55.9081685,118.064334 55.0901608,118.064334 L52.1338521,118.064334 C51.9498982,118.064334 51.777686,118.108591 51.6159109,118.168468 L51.6159109,116.732723 C51.777686,116.793902 51.9498982,116.836857 52.1338521,116.836857 L55.0901608,116.836857 C55.9081685,116.836857 56.5683151,116.176909 56.5683151,115.364666 C56.5683151,114.55112 55.9081685,113.891172 55.0901608,113.891172 L52.1338521,113.891172 C51.9498982,113.891172 51.777686,113.934127 51.6159109,113.995306 L51.6159109,111.334688 C51.777686,111.395866 51.9498982,111.438821 52.1338521,111.438821 L55.0901608,111.438821 C55.9081685,111.438821 56.5683151,110.781477 56.5683151,109.967932 C56.5683151,109.154386 55.9081685,108.497042 55.0901608,108.497042 L52.1338521,108.497042 C51.9498982,108.497042 51.777686,108.539997 51.6159109,108.599874 L51.6159109,104.46446 C51.777686,104.525639 51.9498982,104.568594 52.1338521,104.568594 L55.0901608,104.568594 C55.9081685,104.568594 56.5683151,103.909948 56.5683151,103.095101 C56.5683151,102.281556 55.9081685,101.622909 55.0901608,101.622909 L52.1338521,101.622909 C51.9498982,101.622909 51.777686,101.665865 51.6159109,101.727043 L51.6159109,99.0690281 C51.777686,99.128905 51.9498982,99.1731619 52.1338521,99.1731619 L55.0901608,99.1731619 C55.9081685,99.1731619 56.5683151,98.5132139 56.5683151,97.6996687 C56.5683151,96.8848217 55.9081685,96.2261754 55.0901608,96.2261754 L52.1338521,96.2261754 C51.9498982,96.2261754 51.777686,96.2691306 51.6159109,96.3303092 L51.6159109,92.7923635 L62.8149198,92.7923635 L62.8149198,96.3303092 C62.6531447,96.2691306 62.4822372,96.2261754 62.3008926,96.2261754 L59.3419746,96.2261754 C58.5252715,96.2261754 57.8625156,96.8861234 57.8625156,97.6996687 C57.8625156,98.5132139 58.5252715,99.1731619 59.3419746,99.1731619 L62.3008926,99.1731619 C62.4822372,99.1731619 62.6531447,99.128905 62.8149198,99.0703298 L62.8149198,101.727043 C62.6531447,101.665865 62.4822372,101.622909 62.3008926,101.622909 L59.3419746,101.622909 C58.5252715,101.622909 57.8625156,102.281556 57.8625156,103.095101 C57.8625156,103.909948 58.5252715,104.568594 59.3419746,104.568594 L62.3008926,104.568594 C62.4822372,104.568594 62.6531447,104.525639 62.8149198,104.46446 L62.8149198,108.599874 C62.6531447,108.539997 62.4822372,108.497042 62.3008926,108.497042 L59.3419746,108.497042 C58.5252715,108.497042 57.8625156,109.154386 57.8625156,109.967932 C57.8625156,110.781477 58.5252715,111.438821 59.3419746,111.438821 L62.3008926,111.438821 C62.4822372,111.438821 62.6531447,111.395866 62.8149198,111.334688 L62.8149198,113.995306 C62.6531447,113.934127 62.4822372,113.891172 62.3008926,113.891172 L59.3419746,113.891172 C58.5252715,113.891172 57.8625156,114.55112 57.8625156,115.364666 C57.8625156,116.176909 58.5252715,116.836857 59.3419746,116.836857 L62.3008926,116.836857 C62.4822372,116.836857 62.6531447,116.793902 62.8149198,116.732723 L62.8149198,118.167166 C62.6531447,118.108591 62.4822372,118.064334 62.3008926,118.064334 L59.3419746,118.064334 C58.5252715,118.064334 57.8625156,118.721679 57.8625156,119.535224 C57.8625156,120.348769 58.5252715,121.008717 59.3419746,121.008717 L62.3008926,121.008717 C62.4822372,121.008717 62.6531447,120.965762 62.8149198,120.905885 L62.8149198,123.5639 C62.6531447,123.504023 62.4822372,123.461068 62.3008926,123.461068 L59.3419746,123.461068 C58.5252715,123.461068 57.8625156,124.121016 57.8625156,124.934561 C57.8625156,125.748107 58.5252715,126.405451 59.3419746,126.405451 L62.3008926,126.405451 C62.4822372,126.405451 62.6531447,126.361194 62.8149198,126.301317 L62.8149198,130.435429 C62.6531447,130.375552 62.4822372,130.332597 62.3008926,130.332597 L59.3419746,130.332597 C58.5252715,130.332597 57.8625156,130.992545 57.8625156,131.80609 C57.8625156,132.618334 58.5252715,133.27698 59.3419746,133.27698 L62.3008926,133.27698 C62.4822372,133.27698 62.6531447,133.234025 62.8149198,133.174148 L62.8149198,135.830861 C62.6531447,135.770985 62.4822372,135.728029 62.3008926,135.728029 L59.3419746,135.728029 C58.5252715,135.728029 57.8625156,136.386676 57.8625156,137.198919 C57.8625156,138.012464 58.5252715,138.671111 59.3419746,138.671111 L61.1932553,138.671111 C58.7588016,143.549779 58.5330993,148.619793 60.6453075,152.826799 C60.7927316,153.120977 60.9597252,153.372199 61.118891,153.639042 L51.6159109,153.639042 L51.6159109,150.785776 Z M94.498043,150.697263 C96.9912054,150.697263 100.477197,152.075734 104.218898,153.639042 L84.7824071,153.639042 C88.5214984,152.075734 92.0087946,150.697263 94.498043,150.697263 L94.498043,150.697263 Z M94.498043,124.196513 C109.976263,124.196513 120.217668,131.846442 124.282919,138.396458 C127.140075,142.996568 127.647579,147.653952 125.706278,151.510808 C122.641685,157.613048 116.038914,155.393697 106.314145,151.322065 C101.933173,149.485405 97.7974714,147.751578 94.498043,147.751578 C91.2012239,147.751578 87.0629136,149.485405 82.6845499,151.322065 C74.7484396,154.650442 68.8945308,156.730514 65.3420028,154.071198 C65.3420028,154.069896 65.3406981,154.069896 65.3393935,154.068594 C64.5396507,153.469825 63.8534113,152.631548 63.2898079,151.510808 C61.3524211,147.653952 61.8599251,142.995267 64.7105582,138.396458 C68.7810274,131.846442 79.0211276,124.196513 94.498043,124.196513 L94.498043,124.196513 Z M84.1483532,98.6811297 L93.2351539,98.6811297 L93.0329351,121.27556 C89.9866063,121.374487 87.0042049,121.767592 84.1483532,122.43535 L84.1483532,98.6811297 Z M102.654637,98.366125 C102.71726,99.1236983 103.334353,99.7237693 104.110613,99.7237693 L106.526801,99.7237693 C107.3422,99.7237693 108.004956,99.0651231 108.004956,98.2515778 C108.004956,97.4367308 107.3422,96.7780846 106.526801,96.7780846 L104.110613,96.7780846 C103.334353,96.7780846 102.71726,97.3794572 102.654637,98.1370306 L102.654637,92.7923635 L110.396356,92.7923635 L110.396356,105.184285 L110.396356,118.064334 L110.396356,124.13924 C107.941029,123.20594 105.348714,122.479607 102.654637,121.992782 L102.654637,98.366125 Z M115.941066,63.8379615 L116.182424,63.8379615 C116.183729,63.8379615 116.185033,63.8405648 116.188947,63.8405648 C116.191556,63.8405648 116.192861,63.8379615 116.19547,63.8379615 L132.937884,63.8379615 C132.940494,63.8379615 132.943103,63.8405648 132.945712,63.8405648 C132.948321,63.8405648 132.950931,63.8379615 132.95354,63.8379615 L134.795688,63.8379615 L134.795688,74.1433023 L115.941066,74.1433023 L115.941066,63.8379615 Z M117.667102,46.6571868 L117.667102,46.3252603 L118.388566,47.4564137 C118.633838,47.8404071 119.044799,48.0890265 119.500117,48.1319817 C119.548389,48.134585 119.591442,48.1371884 119.637104,48.1371884 C120.044151,48.1371884 120.436847,47.9705743 120.717344,47.669888 L124.512535,43.628195 L127.108764,47.4850505 C127.367082,47.8690439 127.791089,48.1085516 128.252931,48.134585 C128.717382,48.1528085 129.167482,47.971876 129.46233,47.6178211 L131.341008,45.420598 C131.384061,45.424503 131.424505,45.4375197 131.467558,45.4375197 L131.467558,46.6649968 L131.467558,60.8935784 L117.668406,60.8935784 L117.668406,46.6649968 C117.668406,46.6623935 117.667102,46.6597902 117.667102,46.6571868 L117.667102,46.6571868 Z M124.700403,33.7641212 L129.401012,43.1413695 L128.47211,44.2295677 L125.926762,40.4469075 C125.676272,40.0746292 125.269225,39.8364232 124.819125,39.7999763 C124.383376,39.7752446 123.929362,39.9327469 123.621467,40.2633717 L119.857588,44.2725229 L119.608402,43.8846245 L124.700403,33.7641212 Z M146.25432,105.796071 L145.007086,105.796071 C145.039702,105.675016 145.081451,105.559167 145.081451,105.427698 L145.081451,101.746568 C145.081451,100.931721 144.421304,100.274377 143.603296,100.274377 C142.786593,100.274377 142.123837,100.933023 142.123837,101.746568 L142.123837,105.427698 C142.123837,105.559167 142.16689,105.675016 142.198202,105.796071 L138.601316,105.796071 C138.633932,105.675016 138.67568,105.559167 138.67568,105.427698 L138.67568,101.746568 C138.67568,100.931721 138.012924,100.274377 137.197526,100.274377 C136.380823,100.274377 135.718067,100.933023 135.718067,101.746568 L135.718067,105.427698 C135.718067,105.559167 135.759815,105.675016 135.792431,105.796071 L134.349502,105.796071 C134.382118,105.675016 134.423866,105.559167 134.423866,105.427698 L134.423866,101.746568 C134.423866,100.931721 133.76372,100.274377 132.945712,100.274377 C132.129009,100.274377 131.467558,100.933023 131.467558,101.746568 L131.467558,105.427698 C131.467558,105.559167 131.510611,105.675016 131.541922,105.796071 L128.250321,105.796071 C128.284242,105.675016 128.32599,105.559167 128.32599,105.427698 L128.32599,101.746568 C128.32599,100.931721 127.663235,100.274377 126.846531,100.274377 C126.028524,100.274377 125.368377,100.933023 125.368377,101.746568 L125.368377,105.427698 C125.368377,105.559167 125.41143,105.675016 125.442741,105.796071 L123.999812,105.796071 C124.032428,105.675016 124.074177,105.559167 124.074177,105.427698 L124.074177,101.746568 C124.074177,100.931721 123.412725,100.274377 122.596022,100.274377 C121.779319,100.274377 121.116563,100.933023 121.116563,101.746568 L121.116563,105.427698 C121.116563,105.559167 121.159616,105.675016 121.190928,105.796071 L117.594042,105.796071 C117.625353,105.675016 117.668406,105.559167 117.668406,105.427698 L117.668406,101.746568 C117.668406,100.931721 117.00565,100.274377 116.188947,100.274377 C115.372244,100.274377 114.710793,100.933023 114.710793,101.746568 L114.710793,105.427698 C114.710793,105.559167 114.753846,105.675016 114.785157,105.796071 L113.35397,105.796071 L113.35397,77.0889871 L146.25432,77.0889871 L146.25432,105.796071 Z M127.252274,137.668823 C127.868063,137.490494 128.32599,136.948998 128.32599,136.279938 L128.32599,132.597507 C128.32599,131.783962 127.663235,131.126617 126.846531,131.126617 C126.028524,131.126617 125.368377,131.783962 125.368377,132.597507 L125.368377,134.80254 C123.209202,131.980514 120.421191,129.513845 117.176558,127.485839 C117.47532,127.216393 117.668406,126.837607 117.668406,126.405451 L117.668406,122.72302 C117.668406,121.912078 117.00565,121.253432 116.188947,121.253432 C115.372244,121.253432 114.710793,121.912078 114.710793,122.72302 L114.710793,126.078731 C114.263302,125.843129 113.814507,125.607526 113.35397,125.388845 L113.35397,108.739153 L146.25432,108.739153 L146.25432,153.639042 L127.8785,153.639042 C128.03897,153.372199 128.205964,153.119675 128.354692,152.825497 C130.610411,148.328219 130.18249,142.850781 127.252274,137.668823 L127.252274,137.668823 Z M162.521846,153.639042 L149.213238,153.639042 L149.213238,75.6167955 C149.213238,74.8019486 148.550482,74.1433023 147.732474,74.1433023 L137.751997,74.1433023 L137.751997,62.3670716 C137.751997,61.5522247 137.090546,60.8935784 136.273842,60.8935784 L134.423866,60.8935784 L134.423866,46.6649968 L134.423866,41.2669612 C134.423866,40.6512701 134.037694,40.0980593 133.455825,39.8858867 C132.868738,39.6685074 132.219029,39.8442332 131.817201,40.314137 L131.484518,40.7046387 L126.025914,29.8135453 C125.776729,29.3163064 125.262701,29 124.703012,29 C124.144627,29 123.6306,29.3150047 123.381414,29.8122436 L117.759731,40.9857999 L117.433571,40.476846 C117.080015,39.9249369 116.39508,39.6659041 115.774072,39.8533449 C115.142628,40.035579 114.709488,40.6122199 114.709488,41.2669612 L114.709488,46.6662985 C114.709488,46.6689019 114.710793,46.6715052 114.710793,46.6741086 L114.710793,60.8935784 L114.462912,60.8935784 C113.646209,60.8935784 112.983453,61.5535263 112.983453,62.3670716 L112.983453,74.1433023 L111.875815,74.1433023 C111.057808,74.1433023 110.396356,74.8032502 110.396356,75.6167955 L110.396356,89.8479804 L101.177787,89.8479804 C100.361084,89.8479804 99.6983284,90.5066267 99.6983284,91.320172 L99.6983284,121.548911 C98.4771876,121.410934 97.2377819,121.334135 95.9918531,121.293784 L96.2084229,97.2219549 C96.2110322,96.8288498 96.0583896,96.4513648 95.7791971,96.1728069 C95.502614,95.894249 95.1242691,95.7367466 94.7289639,95.7367466 L82.6715035,95.7367466 C81.8521911,95.7367466 81.1920445,96.3953929 81.1920445,97.2089382 L81.1920445,123.216354 L81.1920445,123.231974 C78.7823789,123.973927 76.5044818,124.935863 74.3648762,126.051396 L74.3648762,92.7923635 L75.2768178,92.7923635 C76.0935209,92.7923635 76.7549722,92.1337173 76.7562768,91.320172 C76.7562768,90.505325 76.0935209,89.8479804 75.2768178,89.8479804 L72.8854172,89.8479804 L65.7738378,89.8479804 L65.7738378,80.522799 L67.3902837,80.522799 C68.2082915,80.522799 68.8684381,79.8654544 68.8684381,79.0519091 C68.8684381,78.2357605 68.2056822,77.5784159 67.3889791,77.5784159 L64.2930742,77.5784159 L63.7803516,77.5784159 L63.7803516,72.1816819 C63.7803516,72.0085595 63.7359939,71.8458504 63.6798945,71.6896497 L64.2930742,71.6896497 C65.1123865,71.6896497 65.7738378,71.0336068 65.7738378,70.2200615 C65.7738378,69.4052146 65.1110819,68.7465683 64.2930742,68.7465683 L50.1377566,68.7465683 C49.3197488,68.7465683 48.6596022,69.4065163 48.6596022,70.2200615 C48.6596022,71.0336068 49.3197488,71.6896497 50.1377566,71.6896497 L50.7548502,71.6896497 C50.6987507,71.8471521 50.6556977,72.0085595 50.6556977,72.1816819 L50.6556977,77.5784159 L50.1377566,77.5784159 L46.9335667,77.5784159 C46.1168636,77.5784159 45.456717,78.2383638 45.456717,79.0519091 C45.456717,79.8654544 46.1168636,80.522799 46.9335667,80.522799 L48.6596022,80.522799 L48.6596022,89.8479804 L41.2649165,89.8479804 L38.8030654,89.8479804 C37.983753,89.8479804 37.3223018,90.5066267 37.3223018,91.320172 C37.3223018,92.1337173 37.9850577,92.7923635 38.8030654,92.7923635 L39.7867622,92.7923635 L39.7867622,153.639042 L26.479459,153.639042 C25.6614512,153.639042 25,154.297689 25,155.111234 C25,155.924779 25.6614512,156.583425 26.479459,156.583425 L63.7920933,156.583425 C64.9453929,157.385256 66.2317656,157.853858 67.6172907,158.055617 L59.3419746,158.055617 C58.5252715,158.055617 57.8625156,158.714263 57.8625156,159.527808 C57.8625156,160.341354 58.5252715,161 59.3419746,161 L126.846531,161 C127.663235,161 128.32599,160.341354 128.32599,159.527808 C128.32599,158.714263 127.663235,158.055617 126.846531,158.055617 L121.382709,158.055617 C122.765625,157.853858 124.053302,157.385256 125.205297,156.583425 L162.521846,156.583425 C163.337244,156.583425 164,155.924779 164,155.111234 C164,154.297689 163.337244,153.639042 162.521846,153.639042 L162.521846,153.639042 Z" id="Fill-4" fill="#5595E6"></path>
                <path d="M119.500662,53 L122.500662,53 C123.329069,53 124,52.3302387 124,51.5 C124,50.6710875 123.329069,50 122.500662,50 L119.500662,50 C118.672254,50 118,50.6710875 118,51.5 C118,52.3302387 118.672254,53 119.500662,53" id="Fill-6" fill="#5595E6"></path>
                <path d="M119.500662,58 L122.500662,58 C123.329069,58 124,57.3302387 124,56.4986737 C124,55.6697613 123.329069,55 122.500662,55 L119.500662,55 C118.672254,55 118,55.6697613 118,56.4986737 C118,57.3302387 118.672254,58 119.500662,58" id="Fill-8" fill="#5595E6"></path>
                <path d="M126.500993,53 L129.501655,53 C130.331568,53 131,52.3302387 131,51.5 C131,50.6710875 130.331568,50 129.501655,50 L126.500993,50 C125.671079,50 125,50.6710875 125,51.5 C125,52.3302387 125.671079,53 126.500993,53" id="Fill-10" fill="#5595E6"></path>
                <path d="M126.500993,58 L129.501655,58 C130.331568,58 131,57.3302387 131,56.4986737 C131,55.6697613 130.331568,55 129.501655,55 L126.500993,55 C125.671079,55 125,55.6697613 125,56.4986737 C125,57.3302387 125.671079,58 126.500993,58" id="Fill-12" fill="#5595E6"></path>
                <path d="M53.5,81 C52.6693122,81 52,81.6252211 52,82.3990096 L52,86.5985143 C52,87.3747789 52.6719577,88 53.5,88 C54.3293651,88 54.9986772,87.3747789 55,86.5985143 L55,82.3990096 C55,81.6252211 54.3306878,81 53.5,81" id="Fill-14" fill="#5595E6"></path>
                <path d="M56.4993383,81 C55.6709307,81 55,81.6252211 55,82.3990096 L55,86.5985143 C55,87.3747789 55.6709307,88 56.4993383,88 C57.3303926,88 58,87.3747789 58,86.5985143 L58,82.3990096 C58,81.6252211 57.3290693,81 56.4993383,81" id="Fill-16" fill="#5595E6"></path>
                <path d="M60.5013228,81 C59.6706349,81 59,81.6252211 59,82.3990096 L59,86.5985143 C59,87.3747789 59.6719577,88 60.5013228,88 C61.3280423,88 62,87.3747789 62,86.5985143 L62,82.3990096 C62,81.6252211 61.3293651,81 60.5013228,81" id="Fill-18" fill="#5595E6"></path>
                <path d="M45.4993389,102 C46.3283385,102 47,101.377709 47,100.60784 L47,95.3921599 C47,94.6222905 46.3283385,94 45.4993389,94 C44.6703394,94 44,94.6235204 44,95.3921599 L44,100.60784 C44,101.377709 44.6716615,102 45.4993389,102" id="Fill-20" fill="#5595E6"></path>
                <path d="M45.4993389,138 C46.3283385,138 47,137.376288 47,136.607412 L47,131.391358 C47,130.622482 46.3283385,130 45.4993389,130 C44.6703394,130 44,130.622482 44,131.391358 L44,136.607412 C44,137.376288 44.6716615,138 45.4993389,138" id="Fill-22" fill="#5595E6"></path>
                <path d="M45.4993389,115 C46.3283385,115 47,114.376288 47,113.607412 L47,108.392588 C47,107.621252 46.3283385,107 45.4993389,107 C44.6703394,107 44,107.623712 44,108.392588 L44,113.607412 C44,114.376288 44.6716615,115 45.4993389,115" id="Fill-24" fill="#5595E6"></path>
                <path d="M45.4993389,124 C46.3283385,124 47,123.376384 47,122.608856 L47,117.392374 C47,116.623616 46.3283385,116 45.4993389,116 C44.6703394,116 44,116.623616 44,117.392374 L44,122.608856 C44,123.376384 44.6716615,124 45.4993389,124" id="Fill-26" fill="#5595E6"></path>
                <path d="M68.4993383,102 C69.3277459,102 70,101.377709 70,100.60784 L70,95.3921599 C70,94.6222905 69.3277459,94 68.4993383,94 C67.6709307,94 67,94.6235204 67,95.3921599 L67,100.60784 C67,101.377709 67.6709307,102 68.4993383,102" id="Fill-28" fill="#5595E6"></path>
                <path d="M68.4993383,115 C69.3277459,115 70,114.376288 70,113.607412 L70,108.392588 C70,107.621252 69.3277459,107 68.4993383,107 C67.6709307,107 67,107.623712 67,108.392588 L67,113.607412 C67,114.376288 67.6709307,115 68.4993383,115" id="Fill-30" fill="#5595E6"></path>
                <path d="M68.4993383,124 C69.3277459,124 70,123.376384 70,122.608856 L70,117.392374 C70,116.623616 69.3277459,116 68.4993383,116 C67.6709307,116 67,116.623616 67,117.392374 L67,122.608856 C67,123.376384 67.6709307,124 68.4993383,124" id="Fill-32" fill="#5595E6"></path>
                <path d="M86.5,102 C85.6706349,102 85,102.648006 85,103.448408 L85,107.552872 C85,108.350714 85.6706349,109 86.5,109 C87.3293651,109 88,108.350714 88,107.552872 L88,103.448408 C88,102.648006 87.3280423,102 86.5,102" id="Fill-34" fill="#5595E6"></path>
                <path d="M86.5,110 C85.6706349,110 85,110.674733 85,111.509798 L85,117.48753 C85,118.322595 85.6706349,119 86.5,119 C87.3293651,119 88,118.322595 88,117.48753 L88,111.509798 C88,110.674733 87.3280423,110 86.5,110" id="Fill-36" fill="#5595E6"></path>
                <path d="M90.5,102 C89.6719577,102 89,102.648006 89,103.448408 L89,107.552872 C89,108.350714 89.6719577,109 90.5,109 C91.3293651,109 91.9986772,108.350714 92,107.552872 L92,103.448408 C92,102.648006 91.3293651,102 90.5,102" id="Fill-38" fill="#5595E6"></path>
                <path d="M90.5,110 C89.6719577,110 89,110.674142 89,111.508477 L89,118.491523 C89,119.325858 89.6719577,120 90.5,120 C91.3293651,120 91.9986772,119.325858 92,118.491523 L92,111.508477 C92,110.674142 91.3293651,110 90.5,110" id="Fill-40" fill="#5595E6"></path>
                <path d="M109.420299,104 L105.578308,104 C104.706269,104 104,104.672414 104,105.501326 C104,106.330239 104.706269,107 105.578308,107 L109.420299,107 C110.293731,107 111,106.330239 111,105.501326 C111,104.669761 110.293731,104 109.420299,104" id="Fill-42" fill="#5595E6"></path>
                <path d="M105.553758,113 L107.444871,113 C108.303346,113 109,112.328616 109,111.499337 C109,110.670057 108.303346,110 107.444871,110 L105.553758,110 C104.695283,110 104,110.670057 104,111.499337 C104,112.328616 104.695283,113 105.553758,113" id="Fill-44" fill="#5595E6"></path>
                <path d="M109.420299,116 L105.578308,116 C104.706269,116 104,116.672414 104,117.501326 C104,118.330239 104.706269,119 105.578308,119 L109.420299,119 C110.293731,119 111,118.330239 111,117.501326 C111,116.672414 110.293731,116 109.420299,116" id="Fill-46" fill="#5595E6"></path>
                <path d="M122.499338,66 L119.499338,66 C118.670931,66 118,66.6718198 118,67.5 C118,68.3281802 118.670931,69 119.499338,69 L122.499338,69 C123.327746,69 124,68.3281802 124,67.5 C124,66.6704947 123.327746,66 122.499338,66" id="Fill-48" fill="#5595E6"></path>
                <path d="M131.545882,66 L128.455401,66 C127.651979,66 127,66.6718198 127,67.5 C127,68.3281802 127.651979,69 128.455401,69 L131.545882,69 C132.348021,69 133,68.3281802 133,67.5 C133,66.6704947 132.348021,66 131.545882,66" id="Fill-50" fill="#5595E6"></path>
                <path d="M122.499338,71 L119.499338,71 C118.670931,71 118,71.6721167 118,72.5006628 C118,73.329209 118.670931,74 119.499338,74 L122.499338,74 C123.327746,74 124,73.329209 124,72.5006628 C124,71.670791 123.327746,71 122.499338,71" id="Fill-52" fill="#5595E6"></path>
                <path d="M131.545882,71 L128.455401,71 C127.651979,71 127,71.6721167 127,72.5006628 C127,73.329209 127.651979,74 128.455401,74 L131.545882,74 C132.348021,74 133,73.329209 133,72.5006628 C133,71.670791 132.348021,71 131.545882,71" id="Fill-54" fill="#5595E6"></path>
                <path d="M115.5,77 C114.671958,77 114,77.6972495 114,78.556778 L114,82.443222 C114,83.305501 114.671958,84 115.5,84 C116.328042,84 117,83.305501 117,82.443222 L117,78.556778 C117,77.694499 116.328042,77 115.5,77" id="Fill-56" fill="#5595E6"></path>
                <path d="M122.5,77 C121.671958,77 121,77.6972495 121,78.556778 L121,82.443222 C121,83.305501 121.671958,84 122.5,84 C123.328042,84 124,83.305501 124,82.443222 L124,78.556778 C124,77.694499 123.328042,77 122.5,77" id="Fill-58" fill="#5595E6"></path>
                <path d="M126.5,77 C125.670635,77 125,77.6972495 125,78.556778 L125,82.443222 C125,83.305501 125.670635,84 126.5,84 C127.328042,84 128,83.305501 128,82.443222 L128,78.556778 C128,77.694499 127.328042,77 126.5,77" id="Fill-60" fill="#5595E6"></path>
                <path d="M143.500662,84 C144.330393,84 145,83.305501 145,82.443222 L145,78.556778 C145,77.694499 144.330393,77 143.500662,77 C142.672254,77 142,77.6972495 142,78.556778 L142,82.443222 C142,83.305501 142.672254,84 143.500662,84" id="Fill-62" fill="#5595E6"></path>
                <path d="M135,78.556778 L135,82.443222 C135,83.305501 135.672254,84 136.500662,84 C137.330393,84 138,83.305501 138,82.443222 L138,78.556778 C138,77.694499 137.327746,77 136.500662,77 C135.672254,77 135,77.6972495 135,78.556778" id="Fill-64" fill="#5595E6"></path>
                <path d="M132.5,77 C131.671227,77 131,77.6972495 131,78.556778 L131,82.443222 C131,83.305501 131.671227,84 132.5,84 C133.330097,84 134,83.305501 134,82.443222 L134,78.556778 C134,77.694499 133.330097,77 132.5,77" id="Fill-66" fill="#5595E6"></path>
                <path d="M115.5,86 C114.671958,86 114,86.6658921 114,87.486765 L114,91.2010507 C114,91.7736917 114.337302,92.2530814 114.813492,92.5 C114.337302,92.7495454 114,93.2302485 114,93.8015761 L114,97.5158618 C114,98.3380481 114.671958,99 115.5,99 C116.328042,99 117,98.3367347 117,97.5158618 L117,93.8015761 C117,93.2289351 116.664021,92.7495454 116.186508,92.5 C116.664021,92.2530814 117,91.7736917 117,91.2010507 L117,87.486765 C117,86.6645787 116.328042,86 115.5,86" id="Fill-68" fill="#5595E6"></path>
                <path d="M122.5,86 C121.671958,86 121,86.6658921 121,87.486765 L121,91.2010507 C121,91.7736917 121.337302,92.2530814 121.813492,92.5 C121.337302,92.7495454 121,93.2302485 121,93.8015761 L121,97.5158618 C121,98.3380481 121.671958,99 122.5,99 C123.328042,99 124,98.3367347 124,97.5158618 L124,93.8015761 C124,93.2289351 123.664021,92.7495454 123.186508,92.5 C123.664021,92.2530814 124,91.7736917 124,91.2010507 L124,87.486765 C124,86.6645787 123.328042,86 122.5,86" id="Fill-70" fill="#5595E6"></path>
                <path d="M126.5,86 C125.670635,86 125,86.6658921 125,87.486765 L125,91.2010507 C125,91.7736917 125.335979,92.2530814 125.813492,92.5 C125.335979,92.7495454 125,93.2302485 125,93.8015761 L125,97.5158618 C125,98.3380481 125.670635,99 126.5,99 C127.328042,99 128,98.3367347 128,97.5158618 L128,93.8015761 C128,93.2289351 127.664021,92.7495454 127.186508,92.5 C127.664021,92.2530814 128,91.7736917 128,91.2010507 L128,87.486765 C128,86.6645787 127.328042,86 126.5,86" id="Fill-72" fill="#5595E6"></path>
                <path d="M136.500662,86 C135.672254,86 135,86.6658921 135,87.486765 L135,91.2010507 C135,91.7736917 135.336127,92.2530814 135.813851,92.5 C135.336127,92.7495454 135,93.2302485 135,93.8015761 L135,97.5158618 C135,98.3380481 135.672254,99 136.500662,99 C137.330393,99 138,98.3367347 138,97.5158618 L138,93.8015761 C138,93.2302485 137.663873,92.7495454 137.187472,92.5013134 C137.663873,92.2530814 138,91.7736917 138,91.2010507 L138,87.486765 C138,86.6645787 137.327746,86 136.500662,86" id="Fill-74" fill="#5595E6"></path>
                <path d="M132.5,86 C131.671227,86 131,86.6658921 131,87.486765 L131,91.2010507 C131,91.7736917 131.336275,92.2530814 131.812886,92.5 C131.336275,92.7495454 131,93.2302485 131,93.8015761 L131,97.5158618 C131,98.3380481 131.671227,99 132.5,99 C133.330097,99 134,98.3367347 134,97.5158618 L134,93.8015761 C134,93.2302485 133.663725,92.7495454 133.187114,92.5 C133.663725,92.2530814 134,91.7736917 134,91.2010507 L134,87.486765 C134,86.6658921 133.330097,86 132.5,86" id="Fill-76" fill="#5595E6"></path>
                <path d="M143.500662,99 C144.330393,99 145,98.3354213 145,97.5145484 L145,93.8015761 C145,93.2276217 144.665196,92.748232 144.187472,92.5 C144.665196,92.251768 145,91.7723783 145,91.2010507 L145,87.4854516 C145,86.6632653 144.330393,86 143.500662,86 C142.672254,86 142,86.6645787 142,87.4854516 L142,91.2010507 C142,91.7723783 142.336127,92.251768 142.813851,92.5 C142.336127,92.748232 142,93.2289351 142,93.8015761 L142,97.5145484 C142,98.3367347 142.672254,99 143.500662,99" id="Fill-78" fill="#5595E6"></path>
                <path d="M115.5,110 C114.671958,110 114,110.69725 114,111.556778 L114,115.444597 C114,116.30275 114.671958,117 115.5,117 C116.328042,117 117,116.30275 117,115.444597 L117,111.556778 C117,110.69725 116.328042,110 115.5,110" id="Fill-80" fill="#5595E6"></path>
                <path d="M122.5,110 C121.671958,110 121,110.69725 121,111.556778 L121,115.444597 C121,116.30275 121.671958,117 122.5,117 C123.328042,117 124,116.30275 124,115.444597 L124,111.556778 C124,110.69725 123.328042,110 122.5,110" id="Fill-82" fill="#5595E6"></path>
                <path d="M126.5,110 C125.670635,110 125,110.69725 125,111.556778 L125,115.444597 C125,116.30275 125.670635,117 126.5,117 C127.328042,117 128,116.30275 128,115.444597 L128,111.556778 C128,110.69725 127.328042,110 126.5,110" id="Fill-84" fill="#5595E6"></path>
                <path d="M143.500662,117 C144.330393,117 145,116.30275 145,115.444597 L145,111.556778 C145,110.69725 144.330393,110 143.500662,110 C142.672254,110 142,110.69725 142,111.556778 L142,115.444597 C142,116.30275 142.672254,117 143.500662,117" id="Fill-86" fill="#5595E6"></path>
                <path d="M136.500662,117 C137.330393,117 138,116.30275 138,115.444597 L138,111.556778 C138,110.69725 137.327746,110 136.500662,110 C135.672254,110 135,110.69725 135,111.556778 L135,115.444597 C135,116.30275 135.672254,117 136.500662,117" id="Fill-88" fill="#5595E6"></path>
                <path d="M132.5,117 C133.330097,117 134,116.30275 134,115.444597 L134,111.556778 C134,110.69725 133.330097,110 132.5,110 C131.671227,110 131,110.69725 131,111.556778 L131,115.444597 C131,116.30275 131.671227,117 132.5,117" id="Fill-90" fill="#5595E6"></path>
                <path d="M122.5,121 C121.671958,121 121,121.697387 121,122.554333 L121,126.444292 C121,127.303989 121.671958,128 122.5,128 C123.328042,128 124,127.303989 124,126.444292 L124,122.554333 C124,121.697387 123.328042,121 122.5,121" id="Fill-92" fill="#5595E6"></path>
                <path d="M126.5,121 C125.670635,121 125,121.697387 125,122.554333 L125,126.444292 C125,127.303989 125.670635,128 126.5,128 C127.328042,128 128,127.303989 128,126.444292 L128,122.554333 C128,121.697387 127.328042,121 126.5,121" id="Fill-94" fill="#5595E6"></path>
                <path d="M143.500662,128 C144.330393,128 145,127.303989 145,126.444292 L145,122.554333 C145,121.697387 144.330393,121 143.500662,121 C142.672254,121 142,121.697387 142,122.554333 L142,126.444292 C142,127.303989 142.672254,128 143.500662,128" id="Fill-96" fill="#5595E6"></path>
                <path d="M136.500662,128 C137.330393,128 138,127.303989 138,126.444292 L138,122.554333 C138,121.697387 137.327746,121 136.500662,121 C135.672254,121 135,121.697387 135,122.554333 L135,126.444292 C135,127.303989 135.672254,128 136.500662,128" id="Fill-98" fill="#5595E6"></path>
                <path d="M132.5,128 C133.330097,128 134,127.303989 134,126.444292 L134,122.554333 C134,121.697387 133.330097,121 132.5,121 C131.671227,121 131,121.697387 131,122.554333 L131,126.444292 C131,127.303989 131.671227,128 132.5,128" id="Fill-100" fill="#5595E6"></path>
                <path d="M143.500662,138 C144.330393,138 145,137.305365 145,136.445667 L145,132.555708 C145,131.696011 144.330393,131 143.500662,131 C142.672254,131 142,131.696011 142,132.555708 L142,136.445667 C142,137.305365 142.672254,138 143.500662,138" id="Fill-102" fill="#5595E6"></path>
                <path d="M136.500662,138 C137.330393,138 138,137.305365 138,136.445667 L138,132.555708 C138,131.696011 137.327746,131 136.500662,131 C135.672254,131 135,131.696011 135,132.555708 L135,136.445667 C135,137.305365 135.672254,138 136.500662,138" id="Fill-104" fill="#5595E6"></path>
                <path d="M132.5,138 C133.330097,138 134,137.305365 134,136.445667 L134,132.555708 C134,131.696011 133.330097,131 132.5,131 C131.671227,131 131,131.696011 131,132.555708 L131,136.445667 C131,137.305365 131.671227,138 132.5,138" id="Fill-106" fill="#5595E6"></path>
                <path d="M143.500662,149 C144.330393,149 145,148.30275 145,147.443222 L145,143.556778 C145,142.69725 144.330393,142 143.500662,142 C142.672254,142 142,142.69725 142,143.556778 L142,147.443222 C142,148.30275 142.672254,149 143.500662,149" id="Fill-108" fill="#5595E6"></path>
                <path d="M136.500662,149 C137.330393,149 138,148.30275 138,147.443222 L138,143.556778 C138,142.69725 137.327746,142 136.500662,142 C135.672254,142 135,142.69725 135,143.556778 L135,147.443222 C135,148.30275 135.672254,149 136.500662,149" id="Fill-110" fill="#5595E6"></path>
                <path d="M132.5,149 C133.330097,149 134,148.30275 134,147.443222 L134,143.556778 C134,142.69725 133.330097,142 132.5,142 C131.671227,142 131,142.69725 131,143.556778 L131,147.443222 C131,148.30275 131.671227,149 132.5,149" id="Fill-112" fill="#5595E6"></path>
                <path d="M66.8690362,141.868726 C67.0660337,141.959305 67.2747729,142 67.4769889,142 C68.0379754,142 68.578088,141.677065 68.8259657,141.129651 C69.0320956,140.674129 74.0901062,129.956893 90.6953059,127.964149 C91.5067793,127.868319 92.0860305,127.127931 91.9894886,126.314031 C91.8916421,125.50013 91.1623597,124.884453 90.3456678,125.018353 C72.0014101,127.215885 66.3589298,139.391579 66.1293168,139.9088 C65.7966388,140.657064 66.1280122,141.528725 66.8690362,141.868726" id="Fill-114" fill="#5595E6"></path>
                <path d="M94.5652174,128 L97.4320221,128 C98.2974465,128 99,127.327586 99,126.5 C99,125.671088 98.2960663,125 97.4320221,125 L94.5652174,125 C93.699793,125 93,125.671088 93,126.5 C93,127.327586 93.7011732,128 94.5652174,128" id="Fill-116" fill="#5595E6"></path>
            </g>
        </g>
    </g>
</svg>