<?xml version="1.0" encoding="UTF-8"?>
<svg width="17px" height="60px" viewBox="0 0 17 60" version="1.1" xmlns="http://www.w3.org/2000/svg" xmlns:xlink="http://www.w3.org/1999/xlink">
    <!-- Generator: Sketch 47.1 (45422) - http://www.bohemiancoding.com/sketch -->
    <title>Page 1</title>
    <desc>Created with Sketch.</desc>
    <defs>
        <polygon id="path-1" points="0 16.5423729 61 16.5423729 61 0 0 0"></polygon>
    </defs>
    <g id="Page-1" stroke="none" stroke-width="1" fill="none" fill-rule="evenodd">
        <g id="7---" transform="translate(-26.000000, -24.000000)">
            <g id="Page-1" transform="translate(34.500000, 53.500000) rotate(-90.000000) translate(-34.500000, -53.500000) translate(4.000000, 45.000000)">
                <path d="M0,8.27118644 C0,3.5076467 3.48756838,0 7.90974167,0 C10.7818568,0 12.7649423,1.16125318 14.1098494,3.12843814 L12.2407644,4.50298802 C11.2148842,3.05729597 9.89282716,2.29887885 7.84131635,2.29887885 C4.76405013,2.29887885 2.53023829,4.85843925 2.53023829,8.27118644 C2.53023829,11.7550758 4.80962538,14.243494 7.93246686,14.243494 C9.93840242,14.243494 11.4200352,13.4614494 12.5826413,11.8972303 L14.4745763,13.2481527 C12.8789429,15.4522619 10.8501573,16.5423729 7.84131635,16.5423729 C3.41914307,16.5423729 0,13.034856 0,8.27118644 Z" id="Fill-1" fill="#FFFFFF"></path>
                <mask id="mask-2" fill="white">
                    <use xlink:href="#path-1"></use>
                </mask>
                <g id="Clip-4"></g>
                <polygon id="Fill-3" fill="#FFFFFF" mask="url(#mask-2)" points="18.6101695 15.5084746 20.6779661 15.5084746 20.6779661 0 18.6101695 0"></polygon>
                <polygon id="Fill-5" fill="#FFFFFF" mask="url(#mask-2)" points="25.8474576 0 28.3661959 0 32.690382 10.9562818 36.8807498 0 39.2881356 0 32.7349474 16.5423729 32.6011291 16.5423729"></polygon>
                <polygon id="Fill-6" fill="#FFFFFF" mask="url(#mask-2)" points="43.4237288 15.5084746 45.4915254 15.5084746 45.4915254 0 43.4237288 0"></polygon>
                <polygon id="Fill-7" fill="#FFFFFF" mask="url(#mask-2)" points="50.6610169 0 53.1072649 0 53.1072649 13.3418256 59.9661017 13.3418256 59.9661017 15.5084746 50.6610169 15.5084746"></polygon>
            </g>
        </g>
    </g>
</svg>