<?xml version="1.0" encoding="UTF-8"?>
<svg width="41px" height="40px" viewBox="0 0 41 40" version="1.1" xmlns="http://www.w3.org/2000/svg" xmlns:xlink="http://www.w3.org/1999/xlink">
    <!-- Generator: Sketch 47.1 (45422) - http://www.bohemiancoding.com/sketch -->
    <title>Group</title>
    <desc>Created with Sketch.</desc>
    <defs></defs>
    <g id="Page-1" stroke="none" stroke-width="1" fill="none" fill-rule="evenodd">
        <g id="1---Our-Mission" transform="translate(-40.000000, -53.000000)">
            <g id="Group" transform="translate(40.000000, 53.000000)">
                <g id="Page-1">
                    <path d="M0.427083333,18.3757136 C0.480041667,7.90135 8.28883333,0.420622727 18.3509167,0.420622727 C23.6125833,0.420622727 28.3087917,2.54812273 31.6400417,6.19262273 C31.9424167,6.52225909 31.8962917,7.03353182 31.5358333,7.29925909 L31.5067917,7.32112273 C31.185625,7.55825909 30.7363333,7.50612273 30.4698333,7.20844091 C27.50075,3.87171364 23.2794583,1.91744091 18.3509167,1.91744091 C9.127625,1.91744091 2.157625,8.93398636 2.157625,18.3757136 C2.157625,27.8174409 9.23183333,34.8339864 18.66525,34.8339864 C23.9969583,34.8339864 28.5223333,32.5971682 31.5221667,29.0064864 C31.7835417,28.69535 32.2447917,28.6348045 32.5745,28.8769864 L32.6069583,28.9005318 C32.9571667,29.1595318 33.0135417,29.6539864 32.733375,29.9853045 C29.3696667,33.94935 24.3505833,36.3308045 18.66525,36.3308045 C8.39475,36.3308045 0.375833333,28.8500773 0.427083333,18.3757136" id="Fill-1" fill="#FFFFFF"></path>
                    <g id="Group-2">
                        <path d="M0.427083333,18.3757136 C0.480041667,7.90135 8.28883333,0.420622727 18.3509167,0.420622727 C23.6125833,0.420622727 28.3087917,2.54812273 31.6400417,6.19262273 C31.9424167,6.52225909 31.8962917,7.03353182 31.5358333,7.29925909 L31.5067917,7.32112273 C31.185625,7.55825909 30.7363333,7.50612273 30.4698333,7.20844091 C27.50075,3.87171364 23.2794583,1.91744091 18.3509167,1.91744091 C9.127625,1.91744091 2.157625,8.93398636 2.157625,18.3757136 C2.157625,27.8174409 9.23183333,34.8339864 18.66525,34.8339864 C23.9969583,34.8339864 28.5223333,32.5971682 31.5221667,29.0064864 C31.7835417,28.69535 32.2447917,28.6348045 32.5745,28.8769864 L32.6069583,28.9005318 C32.9571667,29.1595318 33.0135417,29.6539864 32.733375,29.9853045 C29.3696667,33.94935 24.3505833,36.3308045 18.66525,36.3308045 C8.39475,36.3308045 0.375833333,28.8500773 0.427083333,18.3757136 Z" id="Stroke-3" stroke="#FFFFFF" stroke-width="0.5"></path>
                        <path d="M40.7546833,36.6898455 C40.7546833,38.1479818 39.553725,39.3303 38.0726,39.3303 C36.5897667,39.3303 35.3888083,38.1479818 35.3888083,36.6898455 C35.3888083,35.2317091 36.5897667,34.0493909 38.0726,34.0493909 C39.553725,34.0493909 40.7546833,35.2317091 40.7546833,36.6898455" id="Fill-5" fill="#FFFFFF"></path>
                    </g>
                </g>
            </g>
        </g>
    </g>
</svg>